<svg xmlns="http://www.w3.org/2000/svg" xmlns:xlink="http://www.w3.org/1999/xlink" width="500" zoomAndPan="magnify" viewBox="0 0 375 374.999991" height="500" preserveAspectRatio="xMidYMid meet" version="1.0"><defs><g/></defs><g fill="#3d3b3a" fill-opacity="1"><g transform="translate(63.351563, 203.054636)"><g><path d="M 32.015625 -2.125 C 32.203125 -2.007812 32.285156 -1.84375 32.265625 -1.625 C 32.210938 -1.382812 32.117188 -1.191406 31.984375 -1.046875 C 31.785156 -0.859375 31.566406 -0.765625 31.328125 -0.765625 C 30.816406 -0.765625 30.550781 -1.097656 30.53125 -1.765625 C 30.457031 -2.441406 30.613281 -3.71875 31 -5.59375 C 31.195312 -6.539062 31.441406 -7.691406 31.734375 -9.046875 C 32.035156 -10.410156 32.394531 -11.972656 32.8125 -13.734375 C 32.832031 -13.921875 32.90625 -14.234375 33.03125 -14.671875 C 33.144531 -15.222656 33.285156 -15.867188 33.453125 -16.609375 C 33.628906 -17.359375 33.820312 -18.21875 34.03125 -19.1875 C 34.25 -20.144531 34.46875 -21.148438 34.6875 -22.203125 C 34.90625 -23.253906 35.125 -24.332031 35.34375 -25.4375 C 35.550781 -26.539062 35.742188 -27.625 35.921875 -28.6875 C 36.109375 -29.75 36.265625 -30.785156 36.390625 -31.796875 C 36.503906 -32.804688 36.59375 -33.726562 36.65625 -34.5625 C 36.71875 -35.394531 36.722656 -36.144531 36.671875 -36.8125 C 36.578125 -38.113281 36.21875 -38.765625 35.59375 -38.765625 C 34.894531 -38.765625 34.050781 -38.054688 33.0625 -36.640625 C 32.550781 -35.941406 32.035156 -35.144531 31.515625 -34.25 C 31.003906 -33.363281 30.484375 -32.390625 29.953125 -31.328125 C 28.867188 -29.179688 27.832031 -26.960938 26.84375 -24.671875 C 26.34375 -23.546875 25.867188 -22.46875 25.421875 -21.4375 C 24.972656 -20.414062 24.554688 -19.445312 24.171875 -18.53125 C 23.566406 -17.132812 23.035156 -15.898438 22.578125 -14.828125 C 22.117188 -13.753906 21.722656 -12.847656 21.390625 -12.109375 C 21.054688 -11.359375 20.742188 -10.742188 20.453125 -10.265625 C 20.160156 -9.785156 19.921875 -9.410156 19.734375 -9.140625 C 19.347656 -8.609375 18.9375 -8.34375 18.5 -8.34375 C 17.601562 -8.34375 17.207031 -9.296875 17.3125 -11.203125 C 17.40625 -13.109375 17.875 -16.375 18.71875 -21 C 18.90625 -22.03125 19.085938 -23.085938 19.265625 -24.171875 C 19.453125 -25.253906 19.628906 -26.375 19.796875 -27.53125 C 19.992188 -28.6875 20.148438 -29.8125 20.265625 -30.90625 C 20.390625 -32.007812 20.5 -33.078125 20.59375 -34.109375 C 20.6875 -35.140625 20.726562 -36.078125 20.71875 -36.921875 C 20.707031 -37.765625 20.644531 -38.523438 20.53125 -39.203125 C 20.28125 -40.523438 19.75 -41.1875 18.9375 -41.1875 C 17.78125 -41.1875 16.5625 -40.40625 15.28125 -38.84375 C 14.632812 -38.070312 13.988281 -37.191406 13.34375 -36.203125 C 12.707031 -35.210938 12.078125 -34.117188 11.453125 -32.921875 C 10.203125 -30.503906 9.035156 -27.984375 7.953125 -25.359375 C 7.421875 -24.035156 6.921875 -22.769531 6.453125 -21.5625 C 5.984375 -20.363281 5.554688 -19.195312 5.171875 -18.0625 C 4.785156 -16.957031 4.445312 -15.96875 4.15625 -15.09375 C 3.863281 -14.226562 3.632812 -13.484375 3.46875 -12.859375 C 2.695312 -10.210938 2.191406 -8.144531 1.953125 -6.65625 C 1.710938 -5.113281 1.601562 -4.003906 1.625 -3.328125 C 1.644531 -2.648438 1.71875 -2.273438 1.84375 -2.203125 C 2.175781 -2.148438 2.359375 -2.019531 2.390625 -1.8125 C 2.410156 -1.570312 2.335938 -1.34375 2.171875 -1.125 C 2.003906 -0.882812 1.75 -0.765625 1.40625 -0.765625 C 0.757812 -0.765625 0.363281 -1.1875 0.21875 -2.03125 C 0.0703125 -2.894531 0.0820312 -3.90625 0.25 -5.0625 C 0.394531 -6.238281 0.613281 -7.40625 0.90625 -8.5625 C 1.019531 -9.144531 1.140625 -9.671875 1.265625 -10.140625 C 1.390625 -10.609375 1.5 -11.007812 1.59375 -11.34375 C 2.144531 -13.363281 2.867188 -15.710938 3.765625 -18.390625 C 4.210938 -19.742188 4.703125 -21.101562 5.234375 -22.46875 C 5.765625 -23.84375 6.332031 -25.226562 6.9375 -26.625 C 8.144531 -29.425781 9.429688 -32.039062 10.796875 -34.46875 C 12.148438 -36.851562 13.570312 -38.828125 15.0625 -40.390625 C 16.507812 -41.910156 17.929688 -42.671875 19.328125 -42.671875 C 20.773438 -42.671875 21.65625 -41.753906 21.96875 -39.921875 C 22.300781 -38.046875 22.289062 -35.519531 21.9375 -32.34375 C 21.738281 -30.726562 21.492188 -28.984375 21.203125 -27.109375 C 20.921875 -25.242188 20.585938 -23.253906 20.203125 -21.140625 C 20.003906 -20.023438 19.820312 -18.921875 19.65625 -17.828125 C 19.488281 -16.734375 19.320312 -15.65625 19.15625 -14.59375 C 18.976562 -13.539062 18.875 -12.632812 18.84375 -11.875 C 18.8125 -11.113281 18.816406 -10.53125 18.859375 -10.125 C 19.078125 -10.507812 19.328125 -10.988281 19.609375 -11.5625 C 19.898438 -12.144531 20.226562 -12.84375 20.59375 -13.65625 C 20.957031 -14.476562 21.316406 -15.3125 21.671875 -16.15625 C 22.035156 -17 22.410156 -17.863281 22.796875 -18.75 C 23.640625 -20.800781 24.46875 -22.738281 25.28125 -24.5625 C 26.101562 -26.394531 26.898438 -28.117188 27.671875 -29.734375 C 29.191406 -32.960938 30.640625 -35.53125 32.015625 -37.4375 C 33.390625 -39.3125 34.710938 -40.25 35.984375 -40.25 C 36.992188 -40.25 37.644531 -39.597656 37.9375 -38.296875 C 38.226562 -36.972656 38.253906 -35.15625 38.015625 -32.84375 C 37.890625 -31.664062 37.710938 -30.378906 37.484375 -28.984375 C 37.253906 -27.585938 36.972656 -26.082031 36.640625 -24.46875 C 36.304688 -22.851562 35.9375 -21.148438 35.53125 -19.359375 C 35.132812 -17.578125 34.707031 -15.722656 34.25 -13.796875 C 33.9375 -12.503906 33.644531 -11.25 33.375 -10.03125 C 33.113281 -8.8125 32.863281 -7.632812 32.625 -6.5 C 32.144531 -4.1875 31.941406 -2.726562 32.015625 -2.125 Z M 32.015625 -2.125 "/></g></g></g><g fill="#3d3b3a" fill-opacity="1"><g transform="translate(101.792814, 203.054636)"><g><path d="M 14.234375 -17.84375 C 14.503906 -18.09375 14.769531 -18.179688 15.03125 -18.109375 C 15.269531 -18.035156 15.398438 -17.890625 15.421875 -17.671875 C 15.472656 -17.429688 15.367188 -17.175781 15.109375 -16.90625 C 12.378906 -14.40625 10.050781 -13.15625 8.125 -13.15625 C 7.3125 -13.15625 6.660156 -13.332031 6.171875 -13.6875 C 5.671875 -14.070312 5.410156 -14.648438 5.390625 -15.421875 C 4.492188 -14.410156 3.707031 -13.785156 3.03125 -13.546875 C 2.3125 -13.285156 1.796875 -13.15625 1.484375 -13.15625 C 0.691406 -13.15625 0.160156 -13.429688 -0.109375 -13.984375 C -0.367188 -14.554688 -0.453125 -15.226562 -0.359375 -16 C -0.316406 -16.414062 -0.234375 -16.832031 -0.109375 -17.25 C 0.015625 -17.675781 0.171875 -18.117188 0.359375 -18.578125 C 0.503906 -18.890625 0.707031 -19.082031 0.96875 -19.15625 C 1.238281 -19.226562 1.46875 -19.191406 1.65625 -19.046875 C 1.832031 -18.921875 1.859375 -18.691406 1.734375 -18.359375 C 1.640625 -18.117188 1.550781 -17.863281 1.46875 -17.59375 C 1.382812 -17.332031 1.304688 -17.054688 1.234375 -16.765625 C 1.085938 -16.191406 1.050781 -15.6875 1.125 -15.25 C 1.195312 -14.8125 1.4375 -14.59375 1.84375 -14.59375 C 3.09375 -14.59375 4.453125 -15.96875 5.921875 -18.71875 C 6.117188 -19.007812 6.328125 -19.191406 6.546875 -19.265625 C 6.828125 -19.304688 7.039062 -19.28125 7.1875 -19.1875 C 7.351562 -19.09375 7.398438 -18.875 7.328125 -18.53125 C 7.304688 -18.4375 7.289062 -18.351562 7.28125 -18.28125 C 7.269531 -18.207031 7.253906 -18.125 7.234375 -18.03125 C 6.960938 -17.1875 6.851562 -16.441406 6.90625 -15.796875 C 6.945312 -15.117188 7.378906 -14.734375 8.203125 -14.640625 C 9.722656 -14.492188 11.734375 -15.5625 14.234375 -17.84375 Z M 14.234375 -17.84375 "/></g></g></g><g fill="#3d3b3a" fill-opacity="1"><g transform="translate(115.95538, 203.054636)"><g><path d="M -3.90625 6.390625 C -2.769531 5.335938 -1.597656 3.21875 -0.390625 0.03125 C 0.179688 -1.53125 0.726562 -3.125 1.25 -4.75 C 1.769531 -6.375 2.253906 -8.03125 2.703125 -9.71875 C 0.421875 -7.09375 -1.414062 -4.429688 -2.8125 -1.734375 C -4.21875 1.015625 -5.003906 3.179688 -5.171875 4.765625 C -5.242188 5.441406 -5.179688 5.984375 -4.984375 6.390625 C -4.796875 6.773438 -4.4375 6.773438 -3.90625 6.390625 Z M 13.296875 -18.28125 C 13.628906 -18.40625 13.859375 -18.359375 13.984375 -18.140625 C 14.109375 -17.941406 14.117188 -17.722656 14.015625 -17.484375 C 13.898438 -17.203125 13.6875 -17.007812 13.375 -16.90625 C 11.757812 -16.425781 10.234375 -15.753906 8.796875 -14.890625 C 7.367188 -14.023438 6.015625 -12.988281 4.734375 -11.78125 C 4.128906 -9.488281 3.515625 -7.332031 2.890625 -5.3125 C 2.265625 -3.289062 1.625 -1.410156 0.96875 0.328125 C -0.351562 3.816406 -1.722656 6.175781 -3.140625 7.40625 C -4.054688 8.101562 -4.898438 8.296875 -5.671875 7.984375 C -6.441406 7.671875 -6.78125 6.679688 -6.6875 5.015625 C -6.5625 3.910156 -6.238281 2.679688 -5.71875 1.328125 C -5.207031 -0.015625 -4.503906 -1.492188 -3.609375 -3.109375 C -2.722656 -4.722656 -1.703125 -6.296875 -0.546875 -7.828125 C 0.609375 -9.359375 1.921875 -10.84375 3.390625 -12.28125 C 3.585938 -13.007812 3.765625 -13.679688 3.921875 -14.296875 C 4.078125 -14.910156 4.21875 -15.46875 4.34375 -15.96875 C 3.613281 -15.15625 2.910156 -14.46875 2.234375 -13.90625 C 1.535156 -13.3125 0.835938 -13.015625 0.140625 -13.015625 C -0.671875 -13.015625 -1.128906 -13.457031 -1.234375 -14.34375 C -1.234375 -15.257812 -0.976562 -16.148438 -0.46875 -17.015625 C -0.0078125 -17.859375 0.59375 -18.484375 1.34375 -18.890625 C 2.0625 -19.273438 2.734375 -19.226562 3.359375 -18.75 C 3.578125 -18.5625 3.625 -18.332031 3.5 -18.0625 C 3.382812 -17.78125 3.207031 -17.585938 2.96875 -17.484375 C 2.695312 -17.335938 2.453125 -17.351562 2.234375 -17.53125 C 1.992188 -17.695312 1.71875 -17.625 1.40625 -17.3125 C 1.09375 -17 0.828125 -16.597656 0.609375 -16.109375 C 0.398438 -15.609375 0.296875 -15.164062 0.296875 -14.78125 C 0.296875 -14.6875 0.316406 -14.613281 0.359375 -14.5625 C 0.410156 -14.507812 0.4375 -14.484375 0.4375 -14.484375 C 0.457031 -14.484375 0.472656 -14.484375 0.484375 -14.484375 C 0.492188 -14.484375 0.515625 -14.484375 0.546875 -14.484375 C 0.972656 -14.484375 1.625 -14.929688 2.5 -15.828125 C 2.90625 -16.285156 3.300781 -16.71875 3.6875 -17.125 C 4.070312 -17.53125 4.421875 -17.925781 4.734375 -18.3125 C 4.804688 -18.414062 4.878906 -18.503906 4.953125 -18.578125 C 5.023438 -18.648438 5.082031 -18.722656 5.125 -18.796875 C 5.4375 -19.109375 5.753906 -19.226562 6.078125 -19.15625 C 6.390625 -19.050781 6.507812 -18.769531 6.4375 -18.3125 C 6.332031 -17.925781 6.1875 -17.382812 6 -16.6875 C 5.90625 -16.332031 5.800781 -15.929688 5.6875 -15.484375 C 5.582031 -15.035156 5.457031 -14.546875 5.3125 -14.015625 C 7.769531 -16.046875 10.429688 -17.46875 13.296875 -18.28125 Z M 13.296875 -18.28125 "/></g></g></g><g fill="#3d3b3a" fill-opacity="1"><g transform="translate(129.106335, 203.054636)"><g><path d="M 12.4375 -17.84375 C 12.675781 -18.09375 12.925781 -18.179688 13.1875 -18.109375 C 13.40625 -18.035156 13.550781 -17.890625 13.625 -17.671875 C 13.664062 -17.429688 13.554688 -17.175781 13.296875 -16.90625 C 10.523438 -14.40625 8.1875 -13.15625 6.28125 -13.15625 C 5.507812 -13.15625 4.882812 -13.320312 4.40625 -13.65625 C 3.945312 -14 3.660156 -14.539062 3.546875 -15.28125 C 2.484375 -13.863281 1.503906 -13.15625 0.609375 -13.15625 C -0.328125 -13.15625 -0.832031 -13.660156 -0.90625 -14.671875 C -0.90625 -15.554688 -0.648438 -16.410156 -0.140625 -17.234375 C 0.316406 -18.054688 0.894531 -18.644531 1.59375 -19 C 2.289062 -19.363281 2.90625 -19.28125 3.4375 -18.75 C 3.601562 -18.5625 3.625 -18.332031 3.5 -18.0625 C 3.351562 -17.820312 3.148438 -17.644531 2.890625 -17.53125 C 2.628906 -17.40625 2.398438 -17.441406 2.203125 -17.640625 C 2.035156 -17.773438 1.832031 -17.703125 1.59375 -17.421875 C 1.351562 -17.128906 1.132812 -16.765625 0.9375 -16.328125 C 0.71875 -15.867188 0.609375 -15.460938 0.609375 -15.109375 C 0.609375 -14.960938 0.632812 -14.84375 0.6875 -14.75 C 0.738281 -14.675781 0.800781 -14.640625 0.875 -14.640625 C 0.894531 -14.609375 0.941406 -14.59375 1.015625 -14.59375 C 1.109375 -14.59375 1.273438 -14.703125 1.515625 -14.921875 C 1.734375 -15.085938 2.070312 -15.484375 2.53125 -16.109375 C 2.988281 -16.710938 3.519531 -17.570312 4.125 -18.6875 C 4.269531 -18.96875 4.460938 -19.144531 4.703125 -19.21875 C 4.960938 -19.289062 5.175781 -19.28125 5.34375 -19.1875 C 5.507812 -19.09375 5.570312 -18.875 5.53125 -18.53125 L 5.453125 -18.3125 C 5.160156 -17.375 5.03125 -16.570312 5.0625 -15.90625 C 5.0625 -15.175781 5.492188 -14.753906 6.359375 -14.640625 C 7.847656 -14.492188 9.875 -15.5625 12.4375 -17.84375 Z M 12.4375 -17.84375 "/></g></g></g><g fill="#3d3b3a" fill-opacity="1"><g transform="translate(141.534709, 203.054636)"><g><path d="M 21.203125 -17.78125 C 21.546875 -17.96875 21.8125 -18.015625 22 -17.921875 C 22.195312 -17.796875 22.304688 -17.628906 22.328125 -17.421875 C 22.328125 -17.203125 22.179688 -16.957031 21.890625 -16.6875 C 21.753906 -16.59375 21.648438 -16.507812 21.578125 -16.4375 C 21.066406 -16.050781 20.539062 -15.671875 20 -15.296875 C 19.457031 -14.929688 18.894531 -14.578125 18.3125 -14.234375 C 17.132812 -13.515625 15.992188 -13.15625 14.890625 -13.15625 C 14.160156 -13.15625 13.628906 -13.320312 13.296875 -13.65625 C 12.960938 -14 12.757812 -14.382812 12.6875 -14.8125 C 12.582031 -15.21875 12.53125 -15.664062 12.53125 -16.15625 C 12.488281 -16.78125 12.441406 -17.1875 12.390625 -17.375 C 12.316406 -17.59375 12.148438 -17.703125 11.890625 -17.703125 C 11.484375 -17.703125 11.023438 -17.398438 10.515625 -16.796875 C 10.253906 -16.484375 10 -16.179688 9.75 -15.890625 C 9.507812 -15.609375 9.296875 -15.320312 9.109375 -15.03125 C 8.910156 -14.738281 8.710938 -14.476562 8.515625 -14.25 C 8.328125 -14.019531 8.148438 -13.820312 7.984375 -13.65625 C 7.648438 -13.320312 7.289062 -13.15625 6.90625 -13.15625 C 6.445312 -13.15625 6.171875 -13.273438 6.078125 -13.515625 C 5.972656 -13.753906 5.9375 -14.054688 5.96875 -14.421875 C 5.988281 -14.609375 6.007812 -14.789062 6.03125 -14.96875 C 6.0625 -15.15625 6.097656 -15.332031 6.140625 -15.5 C 6.335938 -16.34375 6.410156 -16.921875 6.359375 -17.234375 C 6.285156 -17.546875 6.054688 -17.703125 5.671875 -17.703125 C 5.117188 -17.703125 4.492188 -17.390625 3.796875 -16.765625 C 3.429688 -16.453125 3.050781 -16.097656 2.65625 -15.703125 C 2.257812 -15.304688 1.859375 -14.863281 1.453125 -14.375 C 1.328125 -14.257812 1.195312 -14.128906 1.0625 -13.984375 C 0.9375 -13.835938 0.8125 -13.707031 0.6875 -13.59375 C 0.351562 -13.25 0.00390625 -13.101562 -0.359375 -13.15625 C -0.722656 -13.175781 -0.925781 -13.390625 -0.96875 -13.796875 C -0.925781 -14.453125 -0.710938 -15.441406 -0.328125 -16.765625 C -0.253906 -17.023438 -0.179688 -17.285156 -0.109375 -17.546875 C -0.0351562 -17.816406 0.046875 -18.109375 0.140625 -18.421875 C 0.265625 -18.765625 0.445312 -18.984375 0.6875 -19.078125 C 0.945312 -19.203125 1.1875 -19.203125 1.40625 -19.078125 C 1.601562 -18.953125 1.664062 -18.734375 1.59375 -18.421875 C 1.5625 -18.285156 1.515625 -18.132812 1.453125 -17.96875 C 1.398438 -17.8125 1.347656 -17.640625 1.296875 -17.453125 C 1.203125 -17.140625 1.113281 -16.8125 1.03125 -16.46875 C 0.945312 -16.132812 0.859375 -15.800781 0.765625 -15.46875 L 1.265625 -15.96875 C 2.035156 -16.8125 2.816406 -17.5625 3.609375 -18.21875 C 4.378906 -18.84375 5.203125 -19.15625 6.078125 -19.15625 C 6.816406 -19.15625 7.320312 -18.945312 7.59375 -18.53125 C 7.800781 -18.125 7.882812 -17.632812 7.84375 -17.0625 C 7.820312 -16.789062 7.785156 -16.53125 7.734375 -16.28125 C 7.679688 -16.03125 7.632812 -15.796875 7.59375 -15.578125 C 7.5625 -15.472656 7.539062 -15.378906 7.53125 -15.296875 C 7.519531 -15.210938 7.503906 -15.125 7.484375 -15.03125 C 7.578125 -15.15625 7.660156 -15.265625 7.734375 -15.359375 C 7.804688 -15.453125 7.878906 -15.546875 7.953125 -15.640625 C 8.140625 -15.910156 8.335938 -16.175781 8.546875 -16.4375 C 8.753906 -16.707031 8.976562 -16.972656 9.21875 -17.234375 C 9.625 -17.742188 10.101562 -18.203125 10.65625 -18.609375 C 11.164062 -18.972656 11.707031 -19.15625 12.28125 -19.15625 C 12.8125 -19.15625 13.210938 -19.019531 13.484375 -18.75 C 13.722656 -18.488281 13.878906 -18.148438 13.953125 -17.734375 C 13.972656 -17.546875 13.988281 -17.347656 14 -17.140625 C 14.007812 -16.941406 14.03125 -16.742188 14.0625 -16.546875 C 14.0625 -15.847656 14.128906 -15.351562 14.265625 -15.0625 C 14.410156 -14.75 14.75 -14.59375 15.28125 -14.59375 C 16.101562 -14.59375 17.03125 -14.921875 18.0625 -15.578125 C 18.570312 -15.890625 19.054688 -16.207031 19.515625 -16.53125 C 19.972656 -16.851562 20.40625 -17.171875 20.8125 -17.484375 C 20.882812 -17.535156 20.957031 -17.582031 21.03125 -17.625 C 21.101562 -17.675781 21.160156 -17.726562 21.203125 -17.78125 Z M 21.203125 -17.78125 "/></g></g></g><g fill="#3d3b3a" fill-opacity="1"><g transform="translate(162.7063, 203.054636)"><g><path d="M 5.125 -16.578125 C 5.25 -17.109375 5.265625 -17.484375 5.171875 -17.703125 C 5.066406 -17.921875 4.945312 -18.039062 4.8125 -18.0625 C 4.632812 -18.09375 4.507812 -18.019531 4.4375 -17.84375 C 4.394531 -17.5625 4.445312 -17.320312 4.59375 -17.125 C 4.707031 -16.90625 4.882812 -16.722656 5.125 -16.578125 Z M 13.1875 -18 C 13.519531 -18.207031 13.785156 -18.265625 13.984375 -18.171875 C 14.171875 -18.078125 14.28125 -17.898438 14.3125 -17.640625 C 14.3125 -17.367188 14.164062 -17.125 13.875 -16.90625 C 13.269531 -16.519531 12.625 -16.1875 11.9375 -15.90625 C 11.25 -15.632812 10.5 -15.40625 9.6875 -15.21875 C 8.019531 -14.851562 6.691406 -14.71875 5.703125 -14.8125 C 4.859375 -13.726562 3.929688 -13.09375 2.921875 -12.90625 C 1.867188 -12.707031 1.039062 -13.019531 0.4375 -13.84375 C -0.21875 -14.65625 -0.363281 -16.050781 0 -18.03125 C 0.09375 -18.5625 0.1875 -19.0625 0.28125 -19.53125 C 0.382812 -20 0.484375 -20.425781 0.578125 -20.8125 C 0.671875 -21.195312 0.769531 -21.625 0.875 -22.09375 C 0.988281 -22.5625 1.117188 -23.0625 1.265625 -23.59375 C 1.410156 -24.144531 1.582031 -24.800781 1.78125 -25.5625 C 1.988281 -26.320312 2.226562 -27.195312 2.5 -28.1875 C 2.6875 -28.957031 2.914062 -29.832031 3.1875 -30.8125 C 3.46875 -31.800781 3.765625 -32.890625 4.078125 -34.078125 C 4.203125 -34.410156 4.382812 -34.625 4.625 -34.71875 C 4.882812 -34.84375 5.125 -34.84375 5.34375 -34.71875 C 5.539062 -34.601562 5.601562 -34.390625 5.53125 -34.078125 C 5.21875 -32.890625 4.925781 -31.800781 4.65625 -30.8125 C 4.394531 -29.832031 4.164062 -28.957031 3.96875 -28.1875 C 3.707031 -27.21875 3.472656 -26.351562 3.265625 -25.59375 C 3.066406 -24.84375 2.894531 -24.1875 2.75 -23.625 C 2.601562 -23.101562 2.472656 -22.601562 2.359375 -22.125 C 2.253906 -21.65625 2.15625 -21.226562 2.0625 -20.84375 C 1.96875 -20.457031 1.867188 -20.039062 1.765625 -19.59375 C 1.671875 -19.15625 1.578125 -18.671875 1.484375 -18.140625 C 1.140625 -16.117188 1.332031 -14.914062 2.0625 -14.53125 C 2.78125 -14.144531 3.539062 -14.359375 4.34375 -15.171875 C 3.738281 -15.484375 3.328125 -15.882812 3.109375 -16.375 C 2.890625 -16.851562 2.851562 -17.34375 3 -17.84375 C 3.289062 -18.738281 3.796875 -19.269531 4.515625 -19.4375 C 5.234375 -19.632812 5.847656 -19.476562 6.359375 -18.96875 C 6.835938 -18.4375 6.875 -17.535156 6.46875 -16.265625 C 6.925781 -16.234375 7.429688 -16.25 7.984375 -16.3125 C 8.535156 -16.375 9.148438 -16.488281 9.828125 -16.65625 C 11.203125 -16.945312 12.320312 -17.394531 13.1875 -18 Z M 13.1875 -18 "/></g></g></g><g fill="#3d3b3a" fill-opacity="1"><g transform="translate(176.001771, 203.054636)"><g><path d="M 1.453125 -20.234375 C 1.617188 -20.234375 1.796875 -20.296875 1.984375 -20.421875 C 2.128906 -20.515625 2.25 -20.671875 2.34375 -20.890625 L 2.5 -21.3125 L 2.78125 -22.109375 C 2.875 -22.273438 2.882812 -22.457031 2.8125 -22.65625 C 2.738281 -22.800781 2.609375 -22.894531 2.421875 -22.9375 C 2.253906 -22.988281 2.070312 -22.957031 1.875 -22.84375 C 1.707031 -22.738281 1.566406 -22.578125 1.453125 -22.359375 C 1.347656 -22.191406 1.269531 -22.03125 1.21875 -21.875 C 1.175781 -21.71875 1.128906 -21.566406 1.078125 -21.421875 L 1.046875 -21.421875 C 1.023438 -21.347656 0.988281 -21.21875 0.9375 -21.03125 C 0.863281 -20.832031 0.875 -20.664062 0.96875 -20.53125 C 1.039062 -20.382812 1.175781 -20.285156 1.375 -20.234375 Z M 8.53125 -17.84375 C 8.789062 -18.09375 9.054688 -18.179688 9.328125 -18.109375 C 9.566406 -18.035156 9.695312 -17.890625 9.71875 -17.671875 C 9.769531 -17.429688 9.660156 -17.175781 9.390625 -16.90625 C 6.671875 -14.40625 4.347656 -13.15625 2.421875 -13.15625 C 1.390625 -13.15625 0.679688 -13.382812 0.296875 -13.84375 C -0.117188 -14.320312 -0.328125 -14.9375 -0.328125 -15.6875 C -0.328125 -16.476562 -0.179688 -17.351562 0.109375 -18.3125 C 0.203125 -18.695312 0.40625 -18.953125 0.71875 -19.078125 C 0.988281 -19.203125 1.21875 -19.203125 1.40625 -19.078125 C 1.601562 -18.953125 1.664062 -18.695312 1.59375 -18.3125 C 1.28125 -17.332031 1.160156 -16.492188 1.234375 -15.796875 C 1.304688 -15.140625 1.726562 -14.753906 2.5 -14.640625 C 4.007812 -14.492188 6.019531 -15.5625 8.53125 -17.84375 Z M 8.53125 -17.84375 "/></g></g></g><g fill="#3d3b3a" fill-opacity="1"><g transform="translate(184.528214, 203.054636)"><g/></g></g><g fill="#3d3b3a" fill-opacity="1"><g transform="translate(203.098517, 203.054636)"><g><path d="M 32.015625 -2.125 C 32.203125 -2.007812 32.285156 -1.84375 32.265625 -1.625 C 32.210938 -1.382812 32.117188 -1.191406 31.984375 -1.046875 C 31.785156 -0.859375 31.566406 -0.765625 31.328125 -0.765625 C 30.816406 -0.765625 30.550781 -1.097656 30.53125 -1.765625 C 30.457031 -2.441406 30.613281 -3.71875 31 -5.59375 C 31.195312 -6.539062 31.441406 -7.691406 31.734375 -9.046875 C 32.035156 -10.410156 32.394531 -11.972656 32.8125 -13.734375 C 32.832031 -13.921875 32.90625 -14.234375 33.03125 -14.671875 C 33.144531 -15.222656 33.285156 -15.867188 33.453125 -16.609375 C 33.628906 -17.359375 33.820312 -18.21875 34.03125 -19.1875 C 34.25 -20.144531 34.46875 -21.148438 34.6875 -22.203125 C 34.90625 -23.253906 35.125 -24.332031 35.34375 -25.4375 C 35.550781 -26.539062 35.742188 -27.625 35.921875 -28.6875 C 36.109375 -29.75 36.265625 -30.785156 36.390625 -31.796875 C 36.503906 -32.804688 36.59375 -33.726562 36.65625 -34.5625 C 36.71875 -35.394531 36.722656 -36.144531 36.671875 -36.8125 C 36.578125 -38.113281 36.21875 -38.765625 35.59375 -38.765625 C 34.894531 -38.765625 34.050781 -38.054688 33.0625 -36.640625 C 32.550781 -35.941406 32.035156 -35.144531 31.515625 -34.25 C 31.003906 -33.363281 30.484375 -32.390625 29.953125 -31.328125 C 28.867188 -29.179688 27.832031 -26.960938 26.84375 -24.671875 C 26.34375 -23.546875 25.867188 -22.46875 25.421875 -21.4375 C 24.972656 -20.414062 24.554688 -19.445312 24.171875 -18.53125 C 23.566406 -17.132812 23.035156 -15.898438 22.578125 -14.828125 C 22.117188 -13.753906 21.722656 -12.847656 21.390625 -12.109375 C 21.054688 -11.359375 20.742188 -10.742188 20.453125 -10.265625 C 20.160156 -9.785156 19.921875 -9.410156 19.734375 -9.140625 C 19.347656 -8.609375 18.9375 -8.34375 18.5 -8.34375 C 17.601562 -8.34375 17.207031 -9.296875 17.3125 -11.203125 C 17.40625 -13.109375 17.875 -16.375 18.71875 -21 C 18.90625 -22.03125 19.085938 -23.085938 19.265625 -24.171875 C 19.453125 -25.253906 19.628906 -26.375 19.796875 -27.53125 C 19.992188 -28.6875 20.148438 -29.8125 20.265625 -30.90625 C 20.390625 -32.007812 20.5 -33.078125 20.59375 -34.109375 C 20.6875 -35.140625 20.726562 -36.078125 20.71875 -36.921875 C 20.707031 -37.765625 20.644531 -38.523438 20.53125 -39.203125 C 20.28125 -40.523438 19.75 -41.1875 18.9375 -41.1875 C 17.78125 -41.1875 16.5625 -40.40625 15.28125 -38.84375 C 14.632812 -38.070312 13.988281 -37.191406 13.34375 -36.203125 C 12.707031 -35.210938 12.078125 -34.117188 11.453125 -32.921875 C 10.203125 -30.503906 9.035156 -27.984375 7.953125 -25.359375 C 7.421875 -24.035156 6.921875 -22.769531 6.453125 -21.5625 C 5.984375 -20.363281 5.554688 -19.195312 5.171875 -18.0625 C 4.785156 -16.957031 4.445312 -15.96875 4.15625 -15.09375 C 3.863281 -14.226562 3.632812 -13.484375 3.46875 -12.859375 C 2.695312 -10.210938 2.191406 -8.144531 1.953125 -6.65625 C 1.710938 -5.113281 1.601562 -4.003906 1.625 -3.328125 C 1.644531 -2.648438 1.71875 -2.273438 1.84375 -2.203125 C 2.175781 -2.148438 2.359375 -2.019531 2.390625 -1.8125 C 2.410156 -1.570312 2.335938 -1.34375 2.171875 -1.125 C 2.003906 -0.882812 1.75 -0.765625 1.40625 -0.765625 C 0.757812 -0.765625 0.363281 -1.1875 0.21875 -2.03125 C 0.0703125 -2.894531 0.0820312 -3.90625 0.25 -5.0625 C 0.394531 -6.238281 0.613281 -7.40625 0.90625 -8.5625 C 1.019531 -9.144531 1.140625 -9.671875 1.265625 -10.140625 C 1.390625 -10.609375 1.5 -11.007812 1.59375 -11.34375 C 2.144531 -13.363281 2.867188 -15.710938 3.765625 -18.390625 C 4.210938 -19.742188 4.703125 -21.101562 5.234375 -22.46875 C 5.765625 -23.84375 6.332031 -25.226562 6.9375 -26.625 C 8.144531 -29.425781 9.429688 -32.039062 10.796875 -34.46875 C 12.148438 -36.851562 13.570312 -38.828125 15.0625 -40.390625 C 16.507812 -41.910156 17.929688 -42.671875 19.328125 -42.671875 C 20.773438 -42.671875 21.65625 -41.753906 21.96875 -39.921875 C 22.300781 -38.046875 22.289062 -35.519531 21.9375 -32.34375 C 21.738281 -30.726562 21.492188 -28.984375 21.203125 -27.109375 C 20.921875 -25.242188 20.585938 -23.253906 20.203125 -21.140625 C 20.003906 -20.023438 19.820312 -18.921875 19.65625 -17.828125 C 19.488281 -16.734375 19.320312 -15.65625 19.15625 -14.59375 C 18.976562 -13.539062 18.875 -12.632812 18.84375 -11.875 C 18.8125 -11.113281 18.816406 -10.53125 18.859375 -10.125 C 19.078125 -10.507812 19.328125 -10.988281 19.609375 -11.5625 C 19.898438 -12.144531 20.226562 -12.84375 20.59375 -13.65625 C 20.957031 -14.476562 21.316406 -15.3125 21.671875 -16.15625 C 22.035156 -17 22.410156 -17.863281 22.796875 -18.75 C 23.640625 -20.800781 24.46875 -22.738281 25.28125 -24.5625 C 26.101562 -26.394531 26.898438 -28.117188 27.671875 -29.734375 C 29.191406 -32.960938 30.640625 -35.53125 32.015625 -37.4375 C 33.390625 -39.3125 34.710938 -40.25 35.984375 -40.25 C 36.992188 -40.25 37.644531 -39.597656 37.9375 -38.296875 C 38.226562 -36.972656 38.253906 -35.15625 38.015625 -32.84375 C 37.890625 -31.664062 37.710938 -30.378906 37.484375 -28.984375 C 37.253906 -27.585938 36.972656 -26.082031 36.640625 -24.46875 C 36.304688 -22.851562 35.9375 -21.148438 35.53125 -19.359375 C 35.132812 -17.578125 34.707031 -15.722656 34.25 -13.796875 C 33.9375 -12.503906 33.644531 -11.25 33.375 -10.03125 C 33.113281 -8.8125 32.863281 -7.632812 32.625 -6.5 C 32.144531 -4.1875 31.941406 -2.726562 32.015625 -2.125 Z M 32.015625 -2.125 "/></g></g></g><g fill="#3d3b3a" fill-opacity="1"><g transform="translate(241.539768, 203.054636)"><g><path d="M 14.234375 -17.84375 C 14.503906 -18.09375 14.769531 -18.179688 15.03125 -18.109375 C 15.269531 -18.035156 15.398438 -17.890625 15.421875 -17.671875 C 15.472656 -17.429688 15.367188 -17.175781 15.109375 -16.90625 C 12.378906 -14.40625 10.050781 -13.15625 8.125 -13.15625 C 7.3125 -13.15625 6.660156 -13.332031 6.171875 -13.6875 C 5.671875 -14.070312 5.410156 -14.648438 5.390625 -15.421875 C 4.492188 -14.410156 3.707031 -13.785156 3.03125 -13.546875 C 2.3125 -13.285156 1.796875 -13.15625 1.484375 -13.15625 C 0.691406 -13.15625 0.160156 -13.429688 -0.109375 -13.984375 C -0.367188 -14.554688 -0.453125 -15.226562 -0.359375 -16 C -0.316406 -16.414062 -0.234375 -16.832031 -0.109375 -17.25 C 0.015625 -17.675781 0.171875 -18.117188 0.359375 -18.578125 C 0.503906 -18.890625 0.707031 -19.082031 0.96875 -19.15625 C 1.238281 -19.226562 1.46875 -19.191406 1.65625 -19.046875 C 1.832031 -18.921875 1.859375 -18.691406 1.734375 -18.359375 C 1.640625 -18.117188 1.550781 -17.863281 1.46875 -17.59375 C 1.382812 -17.332031 1.304688 -17.054688 1.234375 -16.765625 C 1.085938 -16.191406 1.050781 -15.6875 1.125 -15.25 C 1.195312 -14.8125 1.4375 -14.59375 1.84375 -14.59375 C 3.09375 -14.59375 4.453125 -15.96875 5.921875 -18.71875 C 6.117188 -19.007812 6.328125 -19.191406 6.546875 -19.265625 C 6.828125 -19.304688 7.039062 -19.28125 7.1875 -19.1875 C 7.351562 -19.09375 7.398438 -18.875 7.328125 -18.53125 C 7.304688 -18.4375 7.289062 -18.351562 7.28125 -18.28125 C 7.269531 -18.207031 7.253906 -18.125 7.234375 -18.03125 C 6.960938 -17.1875 6.851562 -16.441406 6.90625 -15.796875 C 6.945312 -15.117188 7.378906 -14.734375 8.203125 -14.640625 C 9.722656 -14.492188 11.734375 -15.5625 14.234375 -17.84375 Z M 14.234375 -17.84375 "/></g></g></g><g fill="#3d3b3a" fill-opacity="1"><g transform="translate(255.702334, 203.054636)"><g><path d="M 25.65625 -31.140625 C 26.019531 -31.140625 26.210938 -31.019531 26.234375 -30.78125 C 26.285156 -30.519531 26.222656 -30.28125 26.046875 -30.0625 C 25.878906 -29.820312 25.628906 -29.703125 25.296875 -29.703125 L 4.765625 -29.703125 L 2.8125 -22.546875 C 1.707031 -18.472656 0.816406 -15.125 0.140625 -12.5 C -0.535156 -9.875 -1.003906 -7.972656 -1.265625 -6.796875 C -1.316406 -6.503906 -1.359375 -6.25 -1.390625 -6.03125 C -1.429688 -5.8125 -1.453125 -5.632812 -1.453125 -5.5 C -1.453125 -5.226562 -1.414062 -5.035156 -1.34375 -4.921875 C -1.269531 -4.816406 -1.171875 -4.765625 -1.046875 -4.765625 C -0.710938 -4.765625 -0.53125 -4.644531 -0.5 -4.40625 C -0.457031 -4.113281 -0.519531 -3.863281 -0.6875 -3.65625 C -0.851562 -3.40625 -1.109375 -3.28125 -1.453125 -3.28125 C -2.265625 -3.28125 -2.734375 -3.609375 -2.859375 -4.265625 C -2.953125 -4.890625 -2.914062 -5.6875 -2.75 -6.65625 C -2.332031 -8.820312 -0.957031 -14.117188 1.375 -22.546875 C 1.664062 -23.609375 1.972656 -24.734375 2.296875 -25.921875 C 2.617188 -27.117188 2.945312 -28.378906 3.28125 -29.703125 L -6.4375 -29.703125 C -6.695312 -29.703125 -6.835938 -29.820312 -6.859375 -30.0625 C -6.890625 -30.300781 -6.820312 -30.539062 -6.65625 -30.78125 C -6.507812 -31.019531 -6.28125 -31.140625 -5.96875 -31.140625 L 3.6875 -31.140625 C 4 -32.328125 4.320312 -33.550781 4.65625 -34.8125 C 5 -36.082031 5.363281 -37.398438 5.75 -38.765625 C 5.863281 -39.109375 6.039062 -39.328125 6.28125 -39.421875 C 6.550781 -39.546875 6.796875 -39.546875 7.015625 -39.421875 C 7.203125 -39.296875 7.257812 -39.078125 7.1875 -38.765625 C 6.832031 -37.398438 6.484375 -36.082031 6.140625 -34.8125 C 5.804688 -33.550781 5.484375 -32.328125 5.171875 -31.140625 Z M 25.65625 -31.140625 "/></g></g></g><g fill="#3d3b3a" fill-opacity="1"><g transform="translate(260.760394, 203.054636)"><g><path d="M 16.625 -18 C 16.957031 -18.207031 17.222656 -18.265625 17.421875 -18.171875 C 17.609375 -18.078125 17.710938 -17.898438 17.734375 -17.640625 C 17.734375 -17.367188 17.59375 -17.125 17.3125 -16.90625 C 16.65625 -16.425781 16 -15.96875 15.34375 -15.53125 C 14.695312 -15.101562 14.039062 -14.695312 13.375 -14.3125 C 12.019531 -13.539062 10.691406 -13.15625 9.390625 -13.15625 C 8.648438 -13.15625 8.125 -13.3125 7.8125 -13.625 C 7.488281 -13.9375 7.296875 -14.320312 7.234375 -14.78125 C 7.160156 -15.207031 7.125 -15.628906 7.125 -16.046875 C 7.144531 -16.691406 7.109375 -17.132812 7.015625 -17.375 C 6.910156 -17.59375 6.691406 -17.703125 6.359375 -17.703125 C 5.734375 -17.703125 4.960938 -17.351562 4.046875 -16.65625 C 3.585938 -16.289062 3.125 -15.90625 2.65625 -15.5 C 2.1875 -15.09375 1.710938 -14.660156 1.234375 -14.203125 C 1.085938 -14.078125 0.941406 -13.953125 0.796875 -13.828125 C 0.648438 -13.710938 0.515625 -13.597656 0.390625 -13.484375 C 0.109375 -13.234375 -0.1875 -13.125 -0.5 -13.15625 C -0.84375 -13.195312 -1.023438 -13.363281 -1.046875 -13.65625 C -1.066406 -13.851562 -1.015625 -14.265625 -0.890625 -14.890625 C -0.773438 -15.515625 -0.585938 -16.34375 -0.328125 -17.375 C -0.0546875 -18.4375 0.316406 -19.863281 0.796875 -21.65625 C 1.273438 -23.457031 1.851562 -25.632812 2.53125 -28.1875 C 2.789062 -29.175781 3.0625 -30.160156 3.34375 -31.140625 C 3.625 -32.128906 3.894531 -33.109375 4.15625 -34.078125 C 4.28125 -34.410156 4.460938 -34.625 4.703125 -34.71875 C 4.960938 -34.84375 5.203125 -34.84375 5.421875 -34.71875 C 5.609375 -34.601562 5.664062 -34.390625 5.59375 -34.078125 C 5.332031 -33.109375 5.066406 -32.128906 4.796875 -31.140625 C 4.535156 -30.160156 4.273438 -29.175781 4.015625 -28.1875 C 3.703125 -27 3.378906 -25.8125 3.046875 -24.625 C 2.722656 -23.4375 2.40625 -22.25 2.09375 -21.0625 C 1.78125 -19.882812 1.507812 -18.832031 1.28125 -17.90625 C 1.050781 -16.976562 0.851562 -16.175781 0.6875 -15.5 C 1.75 -16.507812 2.796875 -17.378906 3.828125 -18.109375 C 4.890625 -18.804688 5.863281 -19.15625 6.75 -19.15625 C 7.40625 -19.15625 7.851562 -19.007812 8.09375 -18.71875 C 8.351562 -18.40625 8.519531 -18.054688 8.59375 -17.671875 C 8.625 -17.453125 8.644531 -17.238281 8.65625 -17.03125 C 8.664062 -16.832031 8.660156 -16.632812 8.640625 -16.4375 C 8.640625 -15.738281 8.710938 -15.257812 8.859375 -15 C 8.972656 -14.726562 9.269531 -14.59375 9.75 -14.59375 C 10.832031 -14.59375 11.941406 -14.929688 13.078125 -15.609375 C 13.628906 -15.941406 14.191406 -16.300781 14.765625 -16.6875 C 15.347656 -17.070312 15.929688 -17.484375 16.515625 -17.921875 Z M 16.625 -18 "/></g></g></g><g fill="#3d3b3a" fill-opacity="1"><g transform="translate(277.199098, 203.054636)"><g><path d="M 14.234375 -17.84375 C 14.503906 -18.09375 14.769531 -18.179688 15.03125 -18.109375 C 15.269531 -18.035156 15.398438 -17.890625 15.421875 -17.671875 C 15.472656 -17.429688 15.367188 -17.175781 15.109375 -16.90625 C 12.378906 -14.40625 10.050781 -13.15625 8.125 -13.15625 C 7.3125 -13.15625 6.660156 -13.332031 6.171875 -13.6875 C 5.671875 -14.070312 5.410156 -14.648438 5.390625 -15.421875 C 4.492188 -14.410156 3.707031 -13.785156 3.03125 -13.546875 C 2.3125 -13.285156 1.796875 -13.15625 1.484375 -13.15625 C 0.691406 -13.15625 0.160156 -13.429688 -0.109375 -13.984375 C -0.367188 -14.554688 -0.453125 -15.226562 -0.359375 -16 C -0.316406 -16.414062 -0.234375 -16.832031 -0.109375 -17.25 C 0.015625 -17.675781 0.171875 -18.117188 0.359375 -18.578125 C 0.503906 -18.890625 0.707031 -19.082031 0.96875 -19.15625 C 1.238281 -19.226562 1.46875 -19.191406 1.65625 -19.046875 C 1.832031 -18.921875 1.859375 -18.691406 1.734375 -18.359375 C 1.640625 -18.117188 1.550781 -17.863281 1.46875 -17.59375 C 1.382812 -17.332031 1.304688 -17.054688 1.234375 -16.765625 C 1.085938 -16.191406 1.050781 -15.6875 1.125 -15.25 C 1.195312 -14.8125 1.4375 -14.59375 1.84375 -14.59375 C 3.09375 -14.59375 4.453125 -15.96875 5.921875 -18.71875 C 6.117188 -19.007812 6.328125 -19.191406 6.546875 -19.265625 C 6.828125 -19.304688 7.039062 -19.28125 7.1875 -19.1875 C 7.351562 -19.09375 7.398438 -18.875 7.328125 -18.53125 C 7.304688 -18.4375 7.289062 -18.351562 7.28125 -18.28125 C 7.269531 -18.207031 7.253906 -18.125 7.234375 -18.03125 C 6.960938 -17.1875 6.851562 -16.441406 6.90625 -15.796875 C 6.945312 -15.117188 7.378906 -14.734375 8.203125 -14.640625 C 9.722656 -14.492188 11.734375 -15.5625 14.234375 -17.84375 Z M 14.234375 -17.84375 "/></g></g></g><g fill="#3d3b3a" fill-opacity="1"><g transform="translate(291.361665, 203.054636)"><g><path d="M 11.859375 -18.109375 C 12.171875 -18.273438 12.421875 -18.296875 12.609375 -18.171875 C 12.804688 -18.023438 12.90625 -17.832031 12.90625 -17.59375 C 12.851562 -17.300781 12.679688 -17.070312 12.390625 -16.90625 C 11.265625 -16.28125 10.070312 -15.835938 8.8125 -15.578125 C 7.507812 -15.304688 6.535156 -15.242188 5.890625 -15.390625 C 5.304688 -15.535156 4.910156 -15.8125 4.703125 -16.21875 C 4.578125 -16.414062 4.472656 -16.613281 4.390625 -16.8125 C 4.304688 -17.019531 4.238281 -17.222656 4.1875 -17.421875 C 4.164062 -17.515625 4.140625 -17.601562 4.109375 -17.6875 C 4.085938 -17.769531 4.066406 -17.835938 4.046875 -17.890625 C 3.992188 -18.003906 3.921875 -18.0625 3.828125 -18.0625 C 3.660156 -18.0625 3.445312 -17.882812 3.1875 -17.53125 C 2.96875 -17.164062 2.738281 -16.753906 2.5 -16.296875 C 2.25 -15.835938 2.054688 -15.453125 1.921875 -15.140625 C 1.671875 -14.492188 1.414062 -13.988281 1.15625 -13.625 C 0.914062 -13.238281 0.578125 -13.046875 0.140625 -13.046875 C -0.460938 -13.046875 -0.726562 -13.476562 -0.65625 -14.34375 C -0.601562 -15.207031 -0.3125 -16.59375 0.21875 -18.5 C 0.3125 -18.8125 0.503906 -19.03125 0.796875 -19.15625 C 1.035156 -19.25 1.265625 -19.25 1.484375 -19.15625 C 1.671875 -19.050781 1.742188 -18.832031 1.703125 -18.5 C 1.597656 -18.1875 1.507812 -17.898438 1.4375 -17.640625 C 1.375 -17.390625 1.316406 -17.144531 1.265625 -16.90625 C 1.597656 -17.5625 2.019531 -18.175781 2.53125 -18.75 C 3.007812 -19.257812 3.578125 -19.515625 4.234375 -19.515625 C 4.785156 -19.515625 5.144531 -19.367188 5.3125 -19.078125 C 5.476562 -18.816406 5.597656 -18.476562 5.671875 -18.0625 C 5.722656 -17.914062 5.769531 -17.773438 5.8125 -17.640625 C 5.863281 -17.515625 5.914062 -17.390625 5.96875 -17.265625 C 6.0625 -17.023438 6.265625 -16.867188 6.578125 -16.796875 C 7.054688 -16.703125 7.828125 -16.765625 8.890625 -16.984375 C 9.390625 -17.078125 9.882812 -17.21875 10.375 -17.40625 C 10.875 -17.601562 11.367188 -17.835938 11.859375 -18.109375 Z M 11.859375 -18.109375 "/></g></g></g><g fill="#3d3b3a" fill-opacity="1"><g transform="translate(303.103577, 203.054636)"><g><path d="M 1.453125 -20.234375 C 1.617188 -20.234375 1.796875 -20.296875 1.984375 -20.421875 C 2.128906 -20.515625 2.25 -20.671875 2.34375 -20.890625 L 2.5 -21.3125 L 2.78125 -22.109375 C 2.875 -22.273438 2.882812 -22.457031 2.8125 -22.65625 C 2.738281 -22.800781 2.609375 -22.894531 2.421875 -22.9375 C 2.253906 -22.988281 2.070312 -22.957031 1.875 -22.84375 C 1.707031 -22.738281 1.566406 -22.578125 1.453125 -22.359375 C 1.347656 -22.191406 1.269531 -22.03125 1.21875 -21.875 C 1.175781 -21.71875 1.128906 -21.566406 1.078125 -21.421875 L 1.046875 -21.421875 C 1.023438 -21.347656 0.988281 -21.21875 0.9375 -21.03125 C 0.863281 -20.832031 0.875 -20.664062 0.96875 -20.53125 C 1.039062 -20.382812 1.175781 -20.285156 1.375 -20.234375 Z M 8.53125 -17.84375 C 8.789062 -18.09375 9.054688 -18.179688 9.328125 -18.109375 C 9.566406 -18.035156 9.695312 -17.890625 9.71875 -17.671875 C 9.769531 -17.429688 9.660156 -17.175781 9.390625 -16.90625 C 6.671875 -14.40625 4.347656 -13.15625 2.421875 -13.15625 C 1.390625 -13.15625 0.679688 -13.382812 0.296875 -13.84375 C -0.117188 -14.320312 -0.328125 -14.9375 -0.328125 -15.6875 C -0.328125 -16.476562 -0.179688 -17.351562 0.109375 -18.3125 C 0.203125 -18.695312 0.40625 -18.953125 0.71875 -19.078125 C 0.988281 -19.203125 1.21875 -19.203125 1.40625 -19.078125 C 1.601562 -18.953125 1.664062 -18.695312 1.59375 -18.3125 C 1.28125 -17.332031 1.160156 -16.492188 1.234375 -15.796875 C 1.304688 -15.140625 1.726562 -14.753906 2.5 -14.640625 C 4.007812 -14.492188 6.019531 -15.5625 8.53125 -17.84375 Z M 8.53125 -17.84375 "/></g></g></g><g fill="#3d3b3a" fill-opacity="1"><g transform="translate(126.932564, 215.254836)"><g><path d="M 1.765625 0.078125 C 1.535156 0.078125 1.300781 0.046875 1.0625 -0.015625 C 0.820312 -0.078125 0.625 -0.148438 0.46875 -0.234375 L 0.421875 -1.25 L 0.765625 -1.28125 L 0.984375 -0.578125 C 1.109375 -0.492188 1.242188 -0.429688 1.390625 -0.390625 C 1.546875 -0.347656 1.707031 -0.328125 1.875 -0.328125 C 2.132812 -0.328125 2.34375 -0.390625 2.5 -0.515625 C 2.65625 -0.640625 2.734375 -0.804688 2.734375 -1.015625 C 2.734375 -1.203125 2.675781 -1.351562 2.5625 -1.46875 C 2.457031 -1.59375 2.316406 -1.703125 2.140625 -1.796875 C 1.960938 -1.890625 1.773438 -1.976562 1.578125 -2.0625 C 1.390625 -2.144531 1.207031 -2.242188 1.03125 -2.359375 C 0.863281 -2.472656 0.722656 -2.609375 0.609375 -2.765625 C 0.492188 -2.929688 0.4375 -3.140625 0.4375 -3.390625 C 0.4375 -3.640625 0.507812 -3.859375 0.65625 -4.046875 C 0.800781 -4.242188 1 -4.394531 1.25 -4.5 C 1.5 -4.613281 1.785156 -4.671875 2.109375 -4.671875 C 2.242188 -4.671875 2.375 -4.660156 2.5 -4.640625 C 2.625 -4.628906 2.738281 -4.609375 2.84375 -4.578125 C 2.957031 -4.554688 3.0625 -4.523438 3.15625 -4.484375 L 3.21875 -3.515625 L 2.875 -3.484375 L 2.65625 -4.140625 C 2.488281 -4.242188 2.273438 -4.296875 2.015625 -4.296875 C 1.753906 -4.296875 1.539062 -4.226562 1.375 -4.09375 C 1.21875 -3.96875 1.140625 -3.800781 1.140625 -3.59375 C 1.140625 -3.40625 1.195312 -3.242188 1.3125 -3.109375 C 1.425781 -2.984375 1.566406 -2.875 1.734375 -2.78125 C 1.910156 -2.6875 2.097656 -2.597656 2.296875 -2.515625 C 2.492188 -2.429688 2.675781 -2.332031 2.84375 -2.21875 C 3.019531 -2.113281 3.164062 -1.976562 3.28125 -1.8125 C 3.394531 -1.65625 3.453125 -1.460938 3.453125 -1.234375 C 3.453125 -0.984375 3.378906 -0.757812 3.234375 -0.5625 C 3.085938 -0.363281 2.882812 -0.207031 2.625 -0.09375 C 2.375 0.0195312 2.085938 0.078125 1.765625 0.078125 Z M 1.765625 0.078125 "/></g></g></g><g fill="#3d3b3a" fill-opacity="1"><g transform="translate(133.075225, 215.254836)"><g><path d="M 2.734375 0.078125 C 2.273438 0.078125 1.867188 -0.0195312 1.515625 -0.21875 C 1.171875 -0.425781 0.898438 -0.707031 0.703125 -1.0625 C 0.503906 -1.414062 0.40625 -1.820312 0.40625 -2.28125 C 0.40625 -2.738281 0.503906 -3.144531 0.703125 -3.5 C 0.898438 -3.863281 1.175781 -4.144531 1.53125 -4.34375 C 1.894531 -4.550781 2.300781 -4.65625 2.75 -4.65625 C 3.1875 -4.65625 3.570312 -4.554688 3.90625 -4.359375 C 4.238281 -4.160156 4.5 -3.882812 4.6875 -3.53125 C 4.875 -3.1875 4.96875 -2.785156 4.96875 -2.328125 C 4.96875 -1.984375 4.90625 -1.664062 4.78125 -1.375 C 4.664062 -1.082031 4.503906 -0.828125 4.296875 -0.609375 C 4.085938 -0.390625 3.847656 -0.21875 3.578125 -0.09375 C 3.316406 0.0195312 3.035156 0.078125 2.734375 0.078125 Z M 2.796875 -0.359375 C 3.085938 -0.359375 3.332031 -0.429688 3.53125 -0.578125 C 3.738281 -0.722656 3.898438 -0.925781 4.015625 -1.1875 C 4.128906 -1.457031 4.1875 -1.773438 4.1875 -2.140625 C 4.1875 -2.566406 4.117188 -2.9375 3.984375 -3.25 C 3.859375 -3.570312 3.679688 -3.820312 3.453125 -4 C 3.222656 -4.175781 2.957031 -4.265625 2.65625 -4.265625 C 2.207031 -4.265625 1.851562 -4.097656 1.59375 -3.765625 C 1.34375 -3.441406 1.21875 -2.992188 1.21875 -2.421875 C 1.21875 -2.015625 1.285156 -1.65625 1.421875 -1.34375 C 1.554688 -1.039062 1.742188 -0.800781 1.984375 -0.625 C 2.222656 -0.445312 2.492188 -0.359375 2.796875 -0.359375 Z M 2.796875 -0.359375 "/></g></g></g><g fill="#3d3b3a" fill-opacity="1"><g transform="translate(140.8352, 215.254836)"><g><path d="M 0.421875 0 L 0.40625 -0.296875 L 0.859375 -0.40625 C 0.859375 -0.425781 0.859375 -0.476562 0.859375 -0.5625 C 0.867188 -0.644531 0.875 -0.765625 0.875 -0.921875 C 0.875 -1.085938 0.875 -1.285156 0.875 -1.515625 L 0.890625 -3.171875 C 0.890625 -3.378906 0.882812 -3.554688 0.875 -3.703125 C 0.875 -3.847656 0.875 -3.957031 0.875 -4.03125 C 0.875 -4.113281 0.867188 -4.164062 0.859375 -4.1875 L 0.375 -4.296875 L 0.40625 -4.59375 L 2.875 -4.59375 C 2.945312 -4.59375 3.019531 -4.59375 3.09375 -4.59375 C 3.175781 -4.59375 3.265625 -4.59375 3.359375 -4.59375 C 3.453125 -4.601562 3.550781 -4.613281 3.65625 -4.625 L 3.8125 -3.59375 L 3.453125 -3.53125 L 3.1875 -4.1875 C 3.15625 -4.195312 3.113281 -4.203125 3.0625 -4.203125 C 3.007812 -4.210938 2.957031 -4.21875 2.90625 -4.21875 L 2.03125 -4.21875 C 1.957031 -4.21875 1.867188 -4.210938 1.765625 -4.203125 C 1.671875 -4.203125 1.597656 -4.195312 1.546875 -4.1875 C 1.546875 -4.164062 1.539062 -4.125 1.53125 -4.0625 C 1.53125 -4.007812 1.53125 -3.941406 1.53125 -3.859375 C 1.53125 -3.773438 1.53125 -3.675781 1.53125 -3.5625 C 1.53125 -3.445312 1.53125 -3.332031 1.53125 -3.21875 L 1.546875 -1.515625 C 1.546875 -1.265625 1.546875 -1.0625 1.546875 -0.90625 C 1.554688 -0.75 1.5625 -0.628906 1.5625 -0.546875 C 1.5625 -0.472656 1.566406 -0.425781 1.578125 -0.40625 L 2.203125 -0.3125 L 2.1875 0 Z M 2.90625 -1.546875 L 2.8125 -2.109375 C 2.78125 -2.117188 2.726562 -2.125 2.65625 -2.125 C 2.59375 -2.132812 2.519531 -2.140625 2.4375 -2.140625 L 1.78125 -2.140625 C 1.71875 -2.140625 1.65625 -2.132812 1.59375 -2.125 C 1.53125 -2.125 1.457031 -2.125 1.375 -2.125 L 1.375 -2.546875 C 1.4375 -2.546875 1.5 -2.539062 1.5625 -2.53125 C 1.632812 -2.53125 1.707031 -2.53125 1.78125 -2.53125 L 2.4375 -2.53125 C 2.539062 -2.53125 2.617188 -2.53125 2.671875 -2.53125 C 2.734375 -2.539062 2.78125 -2.550781 2.8125 -2.5625 L 2.90625 -3.09375 L 3.25 -3.09375 L 3.25 -1.546875 Z M 2.90625 -1.546875 "/></g></g></g><g fill="#3d3b3a" fill-opacity="1"><g transform="translate(147.188815, 215.254836)"><g><path d="M 4.046875 -4.625 L 4.21875 -3.359375 L 3.875 -3.3125 L 3.546875 -4.203125 C 3.503906 -4.210938 3.457031 -4.21875 3.40625 -4.21875 C 3.351562 -4.21875 3.304688 -4.21875 3.265625 -4.21875 L 2.984375 -4.21875 C 2.929688 -4.21875 2.859375 -4.21875 2.765625 -4.21875 C 2.679688 -4.21875 2.601562 -4.21875 2.53125 -4.21875 C 2.53125 -4.175781 2.523438 -4.078125 2.515625 -3.921875 C 2.515625 -3.765625 2.515625 -3.582031 2.515625 -3.375 C 2.515625 -3.175781 2.515625 -2.984375 2.515625 -2.796875 L 2.515625 -1.75 C 2.515625 -1.414062 2.515625 -1.128906 2.515625 -0.890625 C 2.523438 -0.648438 2.53125 -0.488281 2.53125 -0.40625 L 3.203125 -0.3125 L 3.171875 0 L 1.1875 0 L 1.171875 -0.3125 L 1.828125 -0.40625 C 1.828125 -0.488281 1.828125 -0.648438 1.828125 -0.890625 C 1.835938 -1.128906 1.84375 -1.414062 1.84375 -1.75 L 1.84375 -2.796875 C 1.84375 -2.984375 1.84375 -3.175781 1.84375 -3.375 C 1.84375 -3.582031 1.84375 -3.765625 1.84375 -3.921875 C 1.84375 -4.078125 1.835938 -4.175781 1.828125 -4.21875 C 1.765625 -4.21875 1.6875 -4.21875 1.59375 -4.21875 C 1.507812 -4.21875 1.441406 -4.21875 1.390625 -4.21875 L 1.078125 -4.21875 C 1.035156 -4.21875 0.988281 -4.21875 0.9375 -4.21875 C 0.894531 -4.21875 0.847656 -4.210938 0.796875 -4.203125 L 0.484375 -3.3125 L 0.125 -3.359375 L 0.296875 -4.625 C 0.359375 -4.613281 0.421875 -4.609375 0.484375 -4.609375 C 0.546875 -4.609375 0.609375 -4.601562 0.671875 -4.59375 C 0.742188 -4.59375 0.8125 -4.59375 0.875 -4.59375 C 0.9375 -4.59375 1 -4.59375 1.0625 -4.59375 L 3.296875 -4.59375 C 3.347656 -4.59375 3.40625 -4.59375 3.46875 -4.59375 C 3.539062 -4.59375 3.609375 -4.59375 3.671875 -4.59375 C 3.734375 -4.601562 3.796875 -4.609375 3.859375 -4.609375 C 3.921875 -4.609375 3.984375 -4.613281 4.046875 -4.625 Z M 4.046875 -4.625 "/></g></g></g><g fill="#3d3b3a" fill-opacity="1"><g transform="translate(153.940898, 215.254836)"><g><path d="M 3.8125 -3.4375 L 2.421875 0.03125 L 2.078125 0.03125 L 0.453125 -4.1875 L 0.0625 -4.296875 L 0.078125 -4.59375 L 1.59375 -4.59375 L 1.625 -4.296875 L 1.21875 -4.1875 L 2.5 -0.78125 L 2.34375 -0.78125 L 3.578125 -4.0625 Z M 4.90625 0.03125 L 3.28125 -4.1875 L 2.890625 -4.296875 L 2.90625 -4.59375 L 4.5 -4.59375 L 4.515625 -4.296875 L 4.046875 -4.1875 L 5.3125 -0.78125 L 5.15625 -0.78125 L 6.390625 -4.1875 L 5.828125 -4.296875 L 5.859375 -4.59375 L 7.296875 -4.59375 L 7.3125 -4.296875 L 6.921875 -4.1875 L 5.234375 0.03125 Z M 4.90625 0.03125 "/></g></g></g><g fill="#3d3b3a" fill-opacity="1"><g transform="translate(163.693216, 215.254836)"><g><path d="M 0.03125 0 L 0.015625 -0.296875 L 0.390625 -0.40625 L 2 -4.453125 L 2.453125 -4.734375 L 4.15625 -0.40625 L 4.546875 -0.296875 L 4.53125 0 L 2.953125 0 L 2.9375 -0.296875 L 3.40625 -0.40625 L 2.953125 -1.5625 L 2.859375 -1.8125 L 2.015625 -3.9375 L 2.1875 -4.03125 L 1.375 -1.8125 L 1.296875 -1.578125 L 0.875 -0.40625 L 1.359375 -0.296875 L 1.34375 0 Z M 1.125 -1.453125 L 1.125 -1.859375 C 1.21875 -1.859375 1.347656 -1.851562 1.515625 -1.84375 C 1.691406 -1.84375 1.90625 -1.84375 2.15625 -1.84375 C 2.40625 -1.84375 2.613281 -1.84375 2.78125 -1.84375 C 2.957031 -1.851562 3.09375 -1.859375 3.1875 -1.859375 L 3.1875 -1.453125 C 3.007812 -1.453125 2.832031 -1.453125 2.65625 -1.453125 C 2.488281 -1.460938 2.320312 -1.46875 2.15625 -1.46875 C 2 -1.46875 1.835938 -1.460938 1.671875 -1.453125 C 1.503906 -1.453125 1.320312 -1.453125 1.125 -1.453125 Z M 1.125 -1.453125 "/></g></g></g><g fill="#3d3b3a" fill-opacity="1"><g transform="translate(170.640628, 215.254836)"><g><path d="M 0.40625 0 L 0.390625 -0.296875 L 0.875 -0.421875 C 0.875 -0.453125 0.875 -0.503906 0.875 -0.578125 C 0.875 -0.660156 0.875 -0.753906 0.875 -0.859375 C 0.875 -0.960938 0.875 -1.070312 0.875 -1.1875 C 0.882812 -1.3125 0.890625 -1.4375 0.890625 -1.5625 L 0.890625 -3.03125 C 0.890625 -3.269531 0.882812 -3.46875 0.875 -3.625 C 0.875 -3.789062 0.867188 -3.921875 0.859375 -4.015625 C 0.859375 -4.109375 0.859375 -4.164062 0.859375 -4.1875 L 0.375 -4.296875 L 0.390625 -4.59375 L 2.109375 -4.59375 C 2.597656 -4.59375 2.96875 -4.492188 3.21875 -4.296875 C 3.476562 -4.109375 3.609375 -3.832031 3.609375 -3.46875 C 3.609375 -3.207031 3.535156 -2.976562 3.390625 -2.78125 C 3.253906 -2.582031 3.0625 -2.425781 2.8125 -2.3125 C 2.5625 -2.195312 2.273438 -2.140625 1.953125 -2.140625 L 1.453125 -2.140625 L 1.453125 -2.484375 L 1.890625 -2.484375 C 2.210938 -2.484375 2.460938 -2.5625 2.640625 -2.71875 C 2.828125 -2.882812 2.921875 -3.113281 2.921875 -3.40625 C 2.921875 -3.675781 2.84375 -3.882812 2.6875 -4.03125 C 2.53125 -4.175781 2.304688 -4.25 2.015625 -4.25 L 1.5625 -4.25 C 1.550781 -4.238281 1.546875 -4.21875 1.546875 -4.1875 C 1.546875 -4.15625 1.546875 -4.101562 1.546875 -4.03125 C 1.546875 -3.957031 1.546875 -3.847656 1.546875 -3.703125 C 1.546875 -3.566406 1.546875 -3.378906 1.546875 -3.140625 L 1.546875 -1.5625 C 1.546875 -1.332031 1.546875 -1.140625 1.546875 -0.984375 C 1.546875 -0.835938 1.550781 -0.71875 1.5625 -0.625 C 1.570312 -0.539062 1.578125 -0.472656 1.578125 -0.421875 L 2.046875 -0.296875 L 2.015625 0 Z M 4.109375 0.078125 C 3.878906 0.078125 3.675781 0.0351562 3.5 -0.046875 C 3.320312 -0.140625 3.148438 -0.285156 2.984375 -0.484375 C 2.828125 -0.691406 2.648438 -0.960938 2.453125 -1.296875 L 1.921875 -2.265625 L 2.5 -2.40625 L 3.34375 -1.15625 C 3.488281 -0.945312 3.617188 -0.773438 3.734375 -0.640625 C 3.859375 -0.515625 3.976562 -0.421875 4.09375 -0.359375 C 4.207031 -0.296875 4.332031 -0.253906 4.46875 -0.234375 L 4.453125 0.046875 C 4.398438 0.0546875 4.34375 0.0625 4.28125 0.0625 C 4.226562 0.0703125 4.171875 0.078125 4.109375 0.078125 Z M 4.109375 0.078125 "/></g></g></g><g fill="#3d3b3a" fill-opacity="1"><g transform="translate(177.470842, 215.254836)"><g><path d="M 3.796875 0.046875 C 3.648438 0.0234375 3.515625 0.0078125 3.390625 0 C 3.273438 0 3.164062 0 3.0625 0 L 0.390625 0 L 0.359375 -0.296875 L 0.84375 -0.40625 C 0.851562 -0.4375 0.859375 -0.5 0.859375 -0.59375 C 0.867188 -0.6875 0.875 -0.8125 0.875 -0.96875 C 0.875 -1.132812 0.875 -1.332031 0.875 -1.5625 L 0.875 -3.03125 C 0.875 -3.257812 0.875 -3.457031 0.875 -3.625 C 0.875 -3.789062 0.867188 -3.921875 0.859375 -4.015625 C 0.859375 -4.109375 0.851562 -4.164062 0.84375 -4.1875 L 0.359375 -4.296875 L 0.390625 -4.59375 L 2.890625 -4.59375 C 2.960938 -4.59375 3.039062 -4.59375 3.125 -4.59375 C 3.207031 -4.59375 3.296875 -4.59375 3.390625 -4.59375 C 3.484375 -4.601562 3.578125 -4.613281 3.671875 -4.625 L 3.828125 -3.59375 L 3.484375 -3.53125 L 3.21875 -4.1875 C 3.175781 -4.195312 3.128906 -4.203125 3.078125 -4.203125 C 3.023438 -4.210938 2.972656 -4.21875 2.921875 -4.21875 L 2.03125 -4.21875 C 1.9375 -4.21875 1.847656 -4.210938 1.765625 -4.203125 C 1.691406 -4.203125 1.617188 -4.195312 1.546875 -4.1875 C 1.546875 -4.164062 1.546875 -4.109375 1.546875 -4.015625 C 1.546875 -3.921875 1.539062 -3.8125 1.53125 -3.6875 C 1.53125 -3.5625 1.53125 -3.4375 1.53125 -3.3125 L 1.53125 -1.203125 C 1.53125 -1.097656 1.53125 -0.988281 1.53125 -0.875 C 1.539062 -0.769531 1.546875 -0.675781 1.546875 -0.59375 C 1.546875 -0.519531 1.546875 -0.460938 1.546875 -0.421875 C 1.628906 -0.421875 1.707031 -0.414062 1.78125 -0.40625 C 1.863281 -0.40625 1.953125 -0.40625 2.046875 -0.40625 L 2.8125 -0.40625 C 2.925781 -0.40625 3.019531 -0.40625 3.09375 -0.40625 C 3.164062 -0.40625 3.222656 -0.40625 3.265625 -0.40625 C 3.304688 -0.414062 3.335938 -0.425781 3.359375 -0.4375 L 3.765625 -1.171875 L 4.125 -1.109375 Z M 2.9375 -1.609375 L 2.84375 -2.140625 C 2.8125 -2.148438 2.765625 -2.15625 2.703125 -2.15625 C 2.640625 -2.164062 2.566406 -2.171875 2.484375 -2.171875 L 1.890625 -2.171875 C 1.816406 -2.171875 1.738281 -2.164062 1.65625 -2.15625 C 1.582031 -2.15625 1.503906 -2.148438 1.421875 -2.140625 L 1.421875 -2.578125 C 1.503906 -2.566406 1.582031 -2.5625 1.65625 -2.5625 C 1.738281 -2.5625 1.816406 -2.5625 1.890625 -2.5625 L 2.484375 -2.5625 C 2.566406 -2.5625 2.640625 -2.5625 2.703125 -2.5625 C 2.765625 -2.5625 2.8125 -2.566406 2.84375 -2.578125 L 2.9375 -3.125 L 3.265625 -3.125 L 3.265625 -1.609375 Z M 2.9375 -1.609375 "/></g></g></g><g fill="#3d3b3a" fill-opacity="1"><g transform="translate(184.215113, 215.254836)"><g/></g></g><g fill="#3d3b3a" fill-opacity="1"><g transform="translate(188.115411, 215.254836)"><g><path d="M 0.390625 -4.59375 L 2.28125 -4.59375 C 3.101562 -4.59375 3.742188 -4.394531 4.203125 -4 C 4.660156 -3.601562 4.890625 -3.050781 4.890625 -2.34375 C 4.890625 -1.882812 4.78125 -1.476562 4.5625 -1.125 C 4.351562 -0.769531 4.054688 -0.492188 3.671875 -0.296875 C 3.296875 -0.0976562 2.863281 0 2.375 0 L 0.390625 0 L 0.375 -0.296875 L 0.84375 -0.40625 C 0.851562 -0.457031 0.863281 -0.59375 0.875 -0.8125 C 0.882812 -1.03125 0.890625 -1.28125 0.890625 -1.5625 L 0.890625 -3.03125 C 0.890625 -3.34375 0.882812 -3.601562 0.875 -3.8125 C 0.863281 -4.03125 0.851562 -4.15625 0.84375 -4.1875 L 0.375 -4.296875 Z M 1.5625 -4.171875 C 1.5625 -4.117188 1.5625 -4.050781 1.5625 -3.96875 C 1.5625 -3.882812 1.554688 -3.769531 1.546875 -3.625 C 1.546875 -3.476562 1.546875 -3.28125 1.546875 -3.03125 L 1.546875 -1.5625 C 1.546875 -1.40625 1.546875 -1.253906 1.546875 -1.109375 C 1.554688 -0.972656 1.5625 -0.847656 1.5625 -0.734375 C 1.570312 -0.628906 1.582031 -0.539062 1.59375 -0.46875 C 1.757812 -0.445312 1.90625 -0.429688 2.03125 -0.421875 C 2.164062 -0.410156 2.296875 -0.40625 2.421875 -0.40625 C 2.972656 -0.40625 3.390625 -0.550781 3.671875 -0.84375 C 3.960938 -1.132812 4.109375 -1.5625 4.109375 -2.125 C 4.109375 -2.457031 4.066406 -2.753906 3.984375 -3.015625 C 3.898438 -3.273438 3.773438 -3.492188 3.609375 -3.671875 C 3.453125 -3.859375 3.253906 -3.992188 3.015625 -4.078125 C 2.773438 -4.171875 2.5 -4.21875 2.1875 -4.21875 C 2.09375 -4.21875 1.992188 -4.210938 1.890625 -4.203125 C 1.785156 -4.203125 1.675781 -4.191406 1.5625 -4.171875 Z M 1.5625 -4.171875 "/></g></g></g><g fill="#3d3b3a" fill-opacity="1"><g transform="translate(195.844134, 215.254836)"><g><path d="M 3.796875 0.046875 C 3.648438 0.0234375 3.515625 0.0078125 3.390625 0 C 3.273438 0 3.164062 0 3.0625 0 L 0.390625 0 L 0.359375 -0.296875 L 0.84375 -0.40625 C 0.851562 -0.4375 0.859375 -0.5 0.859375 -0.59375 C 0.867188 -0.6875 0.875 -0.8125 0.875 -0.96875 C 0.875 -1.132812 0.875 -1.332031 0.875 -1.5625 L 0.875 -3.03125 C 0.875 -3.257812 0.875 -3.457031 0.875 -3.625 C 0.875 -3.789062 0.867188 -3.921875 0.859375 -4.015625 C 0.859375 -4.109375 0.851562 -4.164062 0.84375 -4.1875 L 0.359375 -4.296875 L 0.390625 -4.59375 L 2.890625 -4.59375 C 2.960938 -4.59375 3.039062 -4.59375 3.125 -4.59375 C 3.207031 -4.59375 3.296875 -4.59375 3.390625 -4.59375 C 3.484375 -4.601562 3.578125 -4.613281 3.671875 -4.625 L 3.828125 -3.59375 L 3.484375 -3.53125 L 3.21875 -4.1875 C 3.175781 -4.195312 3.128906 -4.203125 3.078125 -4.203125 C 3.023438 -4.210938 2.972656 -4.21875 2.921875 -4.21875 L 2.03125 -4.21875 C 1.9375 -4.21875 1.847656 -4.210938 1.765625 -4.203125 C 1.691406 -4.203125 1.617188 -4.195312 1.546875 -4.1875 C 1.546875 -4.164062 1.546875 -4.109375 1.546875 -4.015625 C 1.546875 -3.921875 1.539062 -3.8125 1.53125 -3.6875 C 1.53125 -3.5625 1.53125 -3.4375 1.53125 -3.3125 L 1.53125 -1.203125 C 1.53125 -1.097656 1.53125 -0.988281 1.53125 -0.875 C 1.539062 -0.769531 1.546875 -0.675781 1.546875 -0.59375 C 1.546875 -0.519531 1.546875 -0.460938 1.546875 -0.421875 C 1.628906 -0.421875 1.707031 -0.414062 1.78125 -0.40625 C 1.863281 -0.40625 1.953125 -0.40625 2.046875 -0.40625 L 2.8125 -0.40625 C 2.925781 -0.40625 3.019531 -0.40625 3.09375 -0.40625 C 3.164062 -0.40625 3.222656 -0.40625 3.265625 -0.40625 C 3.304688 -0.414062 3.335938 -0.425781 3.359375 -0.4375 L 3.765625 -1.171875 L 4.125 -1.109375 Z M 2.9375 -1.609375 L 2.84375 -2.140625 C 2.8125 -2.148438 2.765625 -2.15625 2.703125 -2.15625 C 2.640625 -2.164062 2.566406 -2.171875 2.484375 -2.171875 L 1.890625 -2.171875 C 1.816406 -2.171875 1.738281 -2.164062 1.65625 -2.15625 C 1.582031 -2.15625 1.503906 -2.148438 1.421875 -2.140625 L 1.421875 -2.578125 C 1.503906 -2.566406 1.582031 -2.5625 1.65625 -2.5625 C 1.738281 -2.5625 1.816406 -2.5625 1.890625 -2.5625 L 2.484375 -2.5625 C 2.566406 -2.5625 2.640625 -2.5625 2.703125 -2.5625 C 2.765625 -2.5625 2.8125 -2.566406 2.84375 -2.578125 L 2.9375 -3.125 L 3.265625 -3.125 L 3.265625 -1.609375 Z M 2.9375 -1.609375 "/></g></g></g><g fill="#3d3b3a" fill-opacity="1"><g transform="translate(202.588404, 215.254836)"><g><path d="M 2.109375 0.03125 L 0.40625 -4.1875 L 0.015625 -4.296875 L 0.03125 -4.59375 L 1.65625 -4.59375 L 1.671875 -4.296875 L 1.1875 -4.1875 L 2.53125 -0.78125 L 2.375 -0.78125 L 3.640625 -4.1875 L 3.09375 -4.296875 L 3.109375 -4.59375 L 4.546875 -4.59375 L 4.5625 -4.296875 L 4.171875 -4.1875 L 2.4375 0.03125 Z M 2.109375 0.03125 "/></g></g></g><g fill="#3d3b3a" fill-opacity="1"><g transform="translate(209.559255, 215.254836)"><g><path d="M 3.796875 0.046875 C 3.648438 0.0234375 3.515625 0.0078125 3.390625 0 C 3.273438 0 3.164062 0 3.0625 0 L 0.390625 0 L 0.359375 -0.296875 L 0.84375 -0.40625 C 0.851562 -0.4375 0.859375 -0.5 0.859375 -0.59375 C 0.867188 -0.6875 0.875 -0.8125 0.875 -0.96875 C 0.875 -1.132812 0.875 -1.332031 0.875 -1.5625 L 0.875 -3.03125 C 0.875 -3.257812 0.875 -3.457031 0.875 -3.625 C 0.875 -3.789062 0.867188 -3.921875 0.859375 -4.015625 C 0.859375 -4.109375 0.851562 -4.164062 0.84375 -4.1875 L 0.359375 -4.296875 L 0.390625 -4.59375 L 2.890625 -4.59375 C 2.960938 -4.59375 3.039062 -4.59375 3.125 -4.59375 C 3.207031 -4.59375 3.296875 -4.59375 3.390625 -4.59375 C 3.484375 -4.601562 3.578125 -4.613281 3.671875 -4.625 L 3.828125 -3.59375 L 3.484375 -3.53125 L 3.21875 -4.1875 C 3.175781 -4.195312 3.128906 -4.203125 3.078125 -4.203125 C 3.023438 -4.210938 2.972656 -4.21875 2.921875 -4.21875 L 2.03125 -4.21875 C 1.9375 -4.21875 1.847656 -4.210938 1.765625 -4.203125 C 1.691406 -4.203125 1.617188 -4.195312 1.546875 -4.1875 C 1.546875 -4.164062 1.546875 -4.109375 1.546875 -4.015625 C 1.546875 -3.921875 1.539062 -3.8125 1.53125 -3.6875 C 1.53125 -3.5625 1.53125 -3.4375 1.53125 -3.3125 L 1.53125 -1.203125 C 1.53125 -1.097656 1.53125 -0.988281 1.53125 -0.875 C 1.539062 -0.769531 1.546875 -0.675781 1.546875 -0.59375 C 1.546875 -0.519531 1.546875 -0.460938 1.546875 -0.421875 C 1.628906 -0.421875 1.707031 -0.414062 1.78125 -0.40625 C 1.863281 -0.40625 1.953125 -0.40625 2.046875 -0.40625 L 2.8125 -0.40625 C 2.925781 -0.40625 3.019531 -0.40625 3.09375 -0.40625 C 3.164062 -0.40625 3.222656 -0.40625 3.265625 -0.40625 C 3.304688 -0.414062 3.335938 -0.425781 3.359375 -0.4375 L 3.765625 -1.171875 L 4.125 -1.109375 Z M 2.9375 -1.609375 L 2.84375 -2.140625 C 2.8125 -2.148438 2.765625 -2.15625 2.703125 -2.15625 C 2.640625 -2.164062 2.566406 -2.171875 2.484375 -2.171875 L 1.890625 -2.171875 C 1.816406 -2.171875 1.738281 -2.164062 1.65625 -2.15625 C 1.582031 -2.15625 1.503906 -2.148438 1.421875 -2.140625 L 1.421875 -2.578125 C 1.503906 -2.566406 1.582031 -2.5625 1.65625 -2.5625 C 1.738281 -2.5625 1.816406 -2.5625 1.890625 -2.5625 L 2.484375 -2.5625 C 2.566406 -2.5625 2.640625 -2.5625 2.703125 -2.5625 C 2.765625 -2.5625 2.8125 -2.566406 2.84375 -2.578125 L 2.9375 -3.125 L 3.265625 -3.125 L 3.265625 -1.609375 Z M 2.9375 -1.609375 "/></g></g></g><g fill="#3d3b3a" fill-opacity="1"><g transform="translate(216.303526, 215.254836)"><g><path d="M 3.65625 0.046875 C 3.582031 0.0351562 3.5 0.0234375 3.40625 0.015625 C 3.3125 0.015625 3.21875 0.0078125 3.125 0 C 3.039062 0 2.960938 0 2.890625 0 L 0.390625 0 L 0.375 -0.296875 L 0.859375 -0.40625 C 0.859375 -0.4375 0.859375 -0.492188 0.859375 -0.578125 C 0.867188 -0.671875 0.875 -0.800781 0.875 -0.96875 C 0.882812 -1.132812 0.890625 -1.332031 0.890625 -1.5625 L 0.890625 -3.03125 C 0.890625 -3.257812 0.890625 -3.453125 0.890625 -3.609375 C 0.890625 -3.773438 0.882812 -3.90625 0.875 -4 C 0.875 -4.09375 0.867188 -4.148438 0.859375 -4.171875 L 0.375 -4.296875 L 0.390625 -4.59375 L 2.234375 -4.59375 L 2.25 -4.28125 L 1.609375 -4.171875 C 1.597656 -4.160156 1.585938 -4.109375 1.578125 -4.015625 C 1.578125 -3.929688 1.570312 -3.804688 1.5625 -3.640625 C 1.5625 -3.484375 1.5625 -3.28125 1.5625 -3.03125 L 1.5625 -1.5625 C 1.5625 -1.289062 1.5625 -1.050781 1.5625 -0.84375 C 1.570312 -0.644531 1.578125 -0.519531 1.578125 -0.46875 C 1.648438 -0.457031 1.722656 -0.445312 1.796875 -0.4375 C 1.878906 -0.4375 1.972656 -0.4375 2.078125 -0.4375 L 2.65625 -0.4375 C 2.78125 -0.4375 2.882812 -0.4375 2.96875 -0.4375 C 3.050781 -0.445312 3.132812 -0.457031 3.21875 -0.46875 L 3.625 -1.234375 L 3.96875 -1.15625 Z M 3.65625 0.046875 "/></g></g></g><g fill="#3d3b3a" fill-opacity="1"><g transform="translate(222.696206, 215.254836)"><g><path d="M 2.734375 0.078125 C 2.273438 0.078125 1.867188 -0.0195312 1.515625 -0.21875 C 1.171875 -0.425781 0.898438 -0.707031 0.703125 -1.0625 C 0.503906 -1.414062 0.40625 -1.820312 0.40625 -2.28125 C 0.40625 -2.738281 0.503906 -3.144531 0.703125 -3.5 C 0.898438 -3.863281 1.175781 -4.144531 1.53125 -4.34375 C 1.894531 -4.550781 2.300781 -4.65625 2.75 -4.65625 C 3.1875 -4.65625 3.570312 -4.554688 3.90625 -4.359375 C 4.238281 -4.160156 4.5 -3.882812 4.6875 -3.53125 C 4.875 -3.1875 4.96875 -2.785156 4.96875 -2.328125 C 4.96875 -1.984375 4.90625 -1.664062 4.78125 -1.375 C 4.664062 -1.082031 4.503906 -0.828125 4.296875 -0.609375 C 4.085938 -0.390625 3.847656 -0.21875 3.578125 -0.09375 C 3.316406 0.0195312 3.035156 0.078125 2.734375 0.078125 Z M 2.796875 -0.359375 C 3.085938 -0.359375 3.332031 -0.429688 3.53125 -0.578125 C 3.738281 -0.722656 3.898438 -0.925781 4.015625 -1.1875 C 4.128906 -1.457031 4.1875 -1.773438 4.1875 -2.140625 C 4.1875 -2.566406 4.117188 -2.9375 3.984375 -3.25 C 3.859375 -3.570312 3.679688 -3.820312 3.453125 -4 C 3.222656 -4.175781 2.957031 -4.265625 2.65625 -4.265625 C 2.207031 -4.265625 1.851562 -4.097656 1.59375 -3.765625 C 1.34375 -3.441406 1.21875 -2.992188 1.21875 -2.421875 C 1.21875 -2.015625 1.285156 -1.65625 1.421875 -1.34375 C 1.554688 -1.039062 1.742188 -0.800781 1.984375 -0.625 C 2.222656 -0.445312 2.492188 -0.359375 2.796875 -0.359375 Z M 2.796875 -0.359375 "/></g></g></g><g fill="#3d3b3a" fill-opacity="1"><g transform="translate(230.456181, 215.254836)"><g><path d="M 0.421875 0 L 0.390625 -0.296875 L 0.84375 -0.40625 C 0.851562 -0.425781 0.859375 -0.472656 0.859375 -0.546875 C 0.867188 -0.617188 0.875 -0.734375 0.875 -0.890625 C 0.875 -1.046875 0.875 -1.253906 0.875 -1.515625 L 0.890625 -3.109375 C 0.890625 -3.359375 0.882812 -3.554688 0.875 -3.703125 C 0.875 -3.859375 0.867188 -3.972656 0.859375 -4.046875 C 0.859375 -4.117188 0.859375 -4.160156 0.859375 -4.171875 L 0.375 -4.296875 L 0.390625 -4.59375 L 2.0625 -4.59375 C 2.570312 -4.59375 2.96875 -4.476562 3.25 -4.25 C 3.539062 -4.019531 3.6875 -3.691406 3.6875 -3.265625 C 3.6875 -2.972656 3.613281 -2.71875 3.46875 -2.5 C 3.320312 -2.289062 3.125 -2.128906 2.875 -2.015625 C 2.625 -1.898438 2.34375 -1.84375 2.03125 -1.84375 C 1.914062 -1.84375 1.804688 -1.847656 1.703125 -1.859375 C 1.609375 -1.867188 1.515625 -1.882812 1.421875 -1.90625 L 1.421875 -2.328125 C 1.535156 -2.285156 1.640625 -2.253906 1.734375 -2.234375 C 1.828125 -2.222656 1.921875 -2.21875 2.015625 -2.21875 C 2.316406 -2.21875 2.550781 -2.296875 2.71875 -2.453125 C 2.894531 -2.609375 2.984375 -2.847656 2.984375 -3.171875 C 2.984375 -3.535156 2.882812 -3.804688 2.6875 -3.984375 C 2.5 -4.160156 2.257812 -4.25 1.96875 -4.25 L 1.5625 -4.25 C 1.5625 -4.21875 1.554688 -4.144531 1.546875 -4.03125 C 1.546875 -3.914062 1.546875 -3.773438 1.546875 -3.609375 C 1.546875 -3.453125 1.546875 -3.285156 1.546875 -3.109375 L 1.546875 -1.515625 C 1.546875 -1.253906 1.546875 -1.046875 1.546875 -0.890625 C 1.554688 -0.734375 1.5625 -0.617188 1.5625 -0.546875 C 1.570312 -0.484375 1.578125 -0.441406 1.578125 -0.421875 L 2.234375 -0.3125 L 2.203125 0 Z M 0.421875 0 "/></g></g></g><g fill="#3d3b3a" fill-opacity="1"><g transform="translate(236.872301, 215.254836)"><g><path d="M 3.796875 0.046875 C 3.648438 0.0234375 3.515625 0.0078125 3.390625 0 C 3.273438 0 3.164062 0 3.0625 0 L 0.390625 0 L 0.359375 -0.296875 L 0.84375 -0.40625 C 0.851562 -0.4375 0.859375 -0.5 0.859375 -0.59375 C 0.867188 -0.6875 0.875 -0.8125 0.875 -0.96875 C 0.875 -1.132812 0.875 -1.332031 0.875 -1.5625 L 0.875 -3.03125 C 0.875 -3.257812 0.875 -3.457031 0.875 -3.625 C 0.875 -3.789062 0.867188 -3.921875 0.859375 -4.015625 C 0.859375 -4.109375 0.851562 -4.164062 0.84375 -4.1875 L 0.359375 -4.296875 L 0.390625 -4.59375 L 2.890625 -4.59375 C 2.960938 -4.59375 3.039062 -4.59375 3.125 -4.59375 C 3.207031 -4.59375 3.296875 -4.59375 3.390625 -4.59375 C 3.484375 -4.601562 3.578125 -4.613281 3.671875 -4.625 L 3.828125 -3.59375 L 3.484375 -3.53125 L 3.21875 -4.1875 C 3.175781 -4.195312 3.128906 -4.203125 3.078125 -4.203125 C 3.023438 -4.210938 2.972656 -4.21875 2.921875 -4.21875 L 2.03125 -4.21875 C 1.9375 -4.21875 1.847656 -4.210938 1.765625 -4.203125 C 1.691406 -4.203125 1.617188 -4.195312 1.546875 -4.1875 C 1.546875 -4.164062 1.546875 -4.109375 1.546875 -4.015625 C 1.546875 -3.921875 1.539062 -3.8125 1.53125 -3.6875 C 1.53125 -3.5625 1.53125 -3.4375 1.53125 -3.3125 L 1.53125 -1.203125 C 1.53125 -1.097656 1.53125 -0.988281 1.53125 -0.875 C 1.539062 -0.769531 1.546875 -0.675781 1.546875 -0.59375 C 1.546875 -0.519531 1.546875 -0.460938 1.546875 -0.421875 C 1.628906 -0.421875 1.707031 -0.414062 1.78125 -0.40625 C 1.863281 -0.40625 1.953125 -0.40625 2.046875 -0.40625 L 2.8125 -0.40625 C 2.925781 -0.40625 3.019531 -0.40625 3.09375 -0.40625 C 3.164062 -0.40625 3.222656 -0.40625 3.265625 -0.40625 C 3.304688 -0.414062 3.335938 -0.425781 3.359375 -0.4375 L 3.765625 -1.171875 L 4.125 -1.109375 Z M 2.9375 -1.609375 L 2.84375 -2.140625 C 2.8125 -2.148438 2.765625 -2.15625 2.703125 -2.15625 C 2.640625 -2.164062 2.566406 -2.171875 2.484375 -2.171875 L 1.890625 -2.171875 C 1.816406 -2.171875 1.738281 -2.164062 1.65625 -2.15625 C 1.582031 -2.15625 1.503906 -2.148438 1.421875 -2.140625 L 1.421875 -2.578125 C 1.503906 -2.566406 1.582031 -2.5625 1.65625 -2.5625 C 1.738281 -2.5625 1.816406 -2.5625 1.890625 -2.5625 L 2.484375 -2.5625 C 2.566406 -2.5625 2.640625 -2.5625 2.703125 -2.5625 C 2.765625 -2.5625 2.8125 -2.566406 2.84375 -2.578125 L 2.9375 -3.125 L 3.265625 -3.125 L 3.265625 -1.609375 Z M 2.9375 -1.609375 "/></g></g></g><g fill="#3d3b3a" fill-opacity="1"><g transform="translate(243.616572, 215.254836)"><g><path d="M 0.40625 0 L 0.390625 -0.296875 L 0.875 -0.421875 C 0.875 -0.453125 0.875 -0.503906 0.875 -0.578125 C 0.875 -0.660156 0.875 -0.753906 0.875 -0.859375 C 0.875 -0.960938 0.875 -1.070312 0.875 -1.1875 C 0.882812 -1.3125 0.890625 -1.4375 0.890625 -1.5625 L 0.890625 -3.03125 C 0.890625 -3.269531 0.882812 -3.46875 0.875 -3.625 C 0.875 -3.789062 0.867188 -3.921875 0.859375 -4.015625 C 0.859375 -4.109375 0.859375 -4.164062 0.859375 -4.1875 L 0.375 -4.296875 L 0.390625 -4.59375 L 2.109375 -4.59375 C 2.597656 -4.59375 2.96875 -4.492188 3.21875 -4.296875 C 3.476562 -4.109375 3.609375 -3.832031 3.609375 -3.46875 C 3.609375 -3.207031 3.535156 -2.976562 3.390625 -2.78125 C 3.253906 -2.582031 3.0625 -2.425781 2.8125 -2.3125 C 2.5625 -2.195312 2.273438 -2.140625 1.953125 -2.140625 L 1.453125 -2.140625 L 1.453125 -2.484375 L 1.890625 -2.484375 C 2.210938 -2.484375 2.460938 -2.5625 2.640625 -2.71875 C 2.828125 -2.882812 2.921875 -3.113281 2.921875 -3.40625 C 2.921875 -3.675781 2.84375 -3.882812 2.6875 -4.03125 C 2.53125 -4.175781 2.304688 -4.25 2.015625 -4.25 L 1.5625 -4.25 C 1.550781 -4.238281 1.546875 -4.21875 1.546875 -4.1875 C 1.546875 -4.15625 1.546875 -4.101562 1.546875 -4.03125 C 1.546875 -3.957031 1.546875 -3.847656 1.546875 -3.703125 C 1.546875 -3.566406 1.546875 -3.378906 1.546875 -3.140625 L 1.546875 -1.5625 C 1.546875 -1.332031 1.546875 -1.140625 1.546875 -0.984375 C 1.546875 -0.835938 1.550781 -0.71875 1.5625 -0.625 C 1.570312 -0.539062 1.578125 -0.472656 1.578125 -0.421875 L 2.046875 -0.296875 L 2.015625 0 Z M 4.109375 0.078125 C 3.878906 0.078125 3.675781 0.0351562 3.5 -0.046875 C 3.320312 -0.140625 3.148438 -0.285156 2.984375 -0.484375 C 2.828125 -0.691406 2.648438 -0.960938 2.453125 -1.296875 L 1.921875 -2.265625 L 2.5 -2.40625 L 3.34375 -1.15625 C 3.488281 -0.945312 3.617188 -0.773438 3.734375 -0.640625 C 3.859375 -0.515625 3.976562 -0.421875 4.09375 -0.359375 C 4.207031 -0.296875 4.332031 -0.253906 4.46875 -0.234375 L 4.453125 0.046875 C 4.398438 0.0546875 4.34375 0.0625 4.28125 0.0625 C 4.226562 0.0703125 4.171875 0.078125 4.109375 0.078125 Z M 4.109375 0.078125 "/></g></g></g><path stroke-linecap="butt" transform="matrix(0.75, 0.000632681, -0.000632681, 0.75, 76.506525, 134.704796)" fill="none" stroke-linejoin="miter" d="M 0.00213647 0.49777 L 296.356436 0.497773 " stroke="#3d3b3a" stroke-width="1" stroke-opacity="1" stroke-miterlimit="4"/><path stroke-linecap="butt" transform="matrix(0.75, 0, 0, 0.75, 76.507382, 236.545194)" fill="none" stroke-linejoin="miter" d="M 0.000574165 0.502241 L 296.35476 0.502241 " stroke="#3d3b3a" stroke-width="1" stroke-opacity="1" stroke-miterlimit="4"/><path stroke-linecap="butt" transform="matrix(-0.0109357, 0.74992, -0.74992, -0.0109357, 77.252973, 135.277052)" fill="none" stroke-linejoin="miter" d="M 0.00245358 0.498773 L 25.760395 0.4982 " stroke="#3d3b3a" stroke-width="1" stroke-opacity="1" stroke-miterlimit="4"/><path stroke-linecap="butt" transform="matrix(0, 0.75, -0.75, 0, 298.771038, 135.270562)" fill="none" stroke-linejoin="miter" d="M -0.00137476 0.50201 L 46.009045 0.50201 " stroke="#3d3b3a" stroke-width="1" stroke-opacity="1" stroke-miterlimit="4"/><path stroke-linecap="butt" transform="matrix(0.000000001309, 0.75, -0.75, 0.000000001309, 76.972821, 211.840796)" fill="none" stroke-linejoin="miter" d="M -0.00126925 0.50022 L 33.9154 0.50022 " stroke="#3d3b3a" stroke-width="1" stroke-opacity="1" stroke-miterlimit="4"/><path stroke-linecap="butt" transform="matrix(0.000000001309, 0.75, -0.75, 0.000000001309, 299.518814, 204.045147)" fill="none" stroke-linejoin="miter" d="M 0.00230346 0.499043 L 44.309598 0.499043 " stroke="#3d3b3a" stroke-width="1" stroke-opacity="1" stroke-miterlimit="4"/><path stroke-linecap="butt" transform="matrix(0.75, -0.000000000000000093, 0.000000000000000093, 0.75, 66.26491, 248.545208)" fill="none" stroke-linejoin="miter" d="M 0.000953669 0.502223 L 324.188475 0.502223 " stroke="#3d3b3a" stroke-width="1" stroke-opacity="1" stroke-miterlimit="4"/><path stroke-linecap="butt" transform="matrix(-0.00966616, 0.749938, -0.749938, -0.00966616, 67.198536, 212.597036)" fill="none" stroke-linejoin="miter" d="M 0.00205189 0.499105 L 48.443585 0.49978 " stroke="#3d3b3a" stroke-width="1" stroke-opacity="1" stroke-miterlimit="4"/><path stroke-linecap="butt" transform="matrix(0, 0.75, -0.75, 0, 66.638635, 123.623077)" fill="none" stroke-linejoin="miter" d="M 0.00256336 0.502555 L 48.971317 0.502555 " stroke="#3d3b3a" stroke-width="1" stroke-opacity="1" stroke-miterlimit="4"/><path stroke-linecap="butt" transform="matrix(-0.00370108, 0.749991, -0.749991, -0.00370108, 310.01102, 201.480426)" fill="none" stroke-linejoin="miter" d="M 0.00251983 0.499062 L 63.263709 0.499383 " stroke="#3d3b3a" stroke-width="1" stroke-opacity="1" stroke-miterlimit="4"/><path stroke-linecap="butt" transform="matrix(0.75, -0.000000000000000093, 0.000000000000000093, 0.75, 65.929167, 123.246803)" fill="none" stroke-linejoin="miter" d="M 0.000694573 0.499054 L 324.188216 0.499054 " stroke="#3d3b3a" stroke-width="1" stroke-opacity="1" stroke-miterlimit="4"/><path stroke-linecap="butt" transform="matrix(-0.00195883, 0.749997, -0.749997, -0.00195883, 309.779895, 123.624455)" fill="none" stroke-linejoin="miter" d="M 0.00202772 0.49819 L 71.908528 0.497887 " stroke="#3d3b3a" stroke-width="1" stroke-opacity="1" stroke-miterlimit="4"/></svg>