<svg xmlns="http://www.w3.org/2000/svg" xmlns:xlink="http://www.w3.org/1999/xlink" width="270" zoomAndPan="magnify" viewBox="0 0 270 34" height="34" preserveAspectRatio="xMidYMid meet" version="1.0"><defs><g/><clipPath id="ddf75fd076"><path d="M 5.925781 3.421875 L 96.246094 3.421875 L 96.246094 25.632812 L 5.925781 25.632812 Z M 5.925781 3.421875 " clip-rule="nonzero"/></clipPath><clipPath id="860d814d83"><path d="M 3.023438 0 L 198.992188 0 L 198.992188 29.03125 L 3.023438 29.03125 Z M 3.023438 0 " clip-rule="nonzero"/></clipPath></defs><g clip-path="url(#ddf75fd076)"><path fill="#ffffff" d="M 5.925781 3.421875 L 96.242188 3.421875 L 96.242188 25.632812 L 5.925781 25.632812 Z M 5.925781 3.421875 " fill-opacity="1" fill-rule="nonzero"/></g><g fill="#f13024" fill-opacity="1"><g transform="translate(102.881824, 19.959679)"><g><path d="M 1.296875 0 L 1.296875 -12.203125 L 4.15625 -12.203125 L 8.265625 -6.390625 L 12.375 -12.203125 L 15.234375 -12.203125 L 15.234375 0 L 11.75 0 L 11.75 -6.171875 L 9.40625 -2.890625 L 7.125 -2.890625 L 4.78125 -6.1875 L 4.78125 0 Z M 1.296875 0 "/></g></g></g><g fill="#f13024" fill-opacity="1"><g transform="translate(119.395327, 19.959679)"><g><path d="M 6.53125 0.265625 C 5.4375 0.265625 4.488281 0.0507812 3.6875 -0.375 C 2.882812 -0.800781 2.265625 -1.40625 1.828125 -2.1875 C 1.398438 -2.976562 1.1875 -3.921875 1.1875 -5.015625 L 1.1875 -12.203125 L 4.703125 -12.203125 L 4.703125 -5.25 C 4.703125 -3.769531 5.3125 -3.03125 6.53125 -3.03125 C 7.75 -3.03125 8.359375 -3.769531 8.359375 -5.25 L 8.359375 -12.203125 L 11.859375 -12.203125 L 11.859375 -5.015625 C 11.859375 -3.921875 11.644531 -2.976562 11.21875 -2.1875 C 10.789062 -1.40625 10.175781 -0.800781 9.375 -0.375 C 8.582031 0.0507812 7.632812 0.265625 6.53125 0.265625 Z M 6.53125 0.265625 "/></g></g></g><g fill="#f13024" fill-opacity="1"><g transform="translate(132.45981, 19.959679)"><g><path d="M 4.203125 0 L 4.203125 -8.9375 L 0.484375 -8.9375 L 0.484375 -12.203125 L 11.40625 -12.203125 L 11.40625 -8.9375 L 7.703125 -8.9375 L 7.703125 0 Z M 4.203125 0 "/></g></g></g><g fill="#f13024" fill-opacity="1"><g transform="translate(144.357195, 19.959679)"><g><path d="M 8.578125 0 L 8.578125 -4.578125 L 4.8125 -4.578125 L 4.8125 0 L 1.296875 0 L 1.296875 -12.203125 L 4.8125 -12.203125 L 4.8125 -7.828125 L 8.578125 -7.828125 L 8.578125 -12.203125 L 12.09375 -12.203125 L 12.09375 0 Z M 8.578125 0 "/></g></g></g><g fill="#f13024" fill-opacity="1"><g transform="translate(157.73522, 19.959679)"><g><path d="M 6.53125 0.265625 C 5.4375 0.265625 4.488281 0.0507812 3.6875 -0.375 C 2.882812 -0.800781 2.265625 -1.40625 1.828125 -2.1875 C 1.398438 -2.976562 1.1875 -3.921875 1.1875 -5.015625 L 1.1875 -12.203125 L 4.703125 -12.203125 L 4.703125 -5.25 C 4.703125 -3.769531 5.3125 -3.03125 6.53125 -3.03125 C 7.75 -3.03125 8.359375 -3.769531 8.359375 -5.25 L 8.359375 -12.203125 L 11.859375 -12.203125 L 11.859375 -5.015625 C 11.859375 -3.921875 11.644531 -2.976562 11.21875 -2.1875 C 10.789062 -1.40625 10.175781 -0.800781 9.375 -0.375 C 8.582031 0.0507812 7.632812 0.265625 6.53125 0.265625 Z M 6.53125 0.265625 "/></g></g></g><g fill="#f13024" fill-opacity="1"><g transform="translate(170.799702, 19.959679)"><g><path d="M 1.296875 0 L 1.296875 -12.203125 L 6.84375 -12.203125 C 7.832031 -12.203125 8.679688 -12.019531 9.390625 -11.65625 C 10.109375 -11.300781 10.660156 -10.800781 11.046875 -10.15625 C 11.441406 -9.507812 11.640625 -8.734375 11.640625 -7.828125 C 11.640625 -6.972656 11.460938 -6.226562 11.109375 -5.59375 C 10.765625 -4.96875 10.265625 -4.472656 9.609375 -4.109375 L 11.859375 0 L 7.875 0 L 6.125 -3.46875 L 4.8125 -3.46875 L 4.8125 0 Z M 4.734375 -6.265625 L 6.375 -6.265625 C 6.9375 -6.265625 7.363281 -6.398438 7.65625 -6.671875 C 7.945312 -6.941406 8.09375 -7.320312 8.09375 -7.8125 C 8.09375 -8.289062 7.945312 -8.660156 7.65625 -8.921875 C 7.363281 -9.191406 6.9375 -9.328125 6.375 -9.328125 L 4.734375 -9.328125 Z M 4.734375 -6.265625 "/></g></g></g><g fill="#f13024" fill-opacity="1"><g transform="translate(183.341604, 19.959679)"><g><path d="M 1.296875 0 L 1.296875 -12.203125 L 4.8125 -12.203125 L 4.8125 0 Z M 1.296875 0 "/></g></g></g><g fill="#000000" fill-opacity="1"><g transform="translate(7.53647, 19.24609)"><g><path d="M 1.296875 0 L 1.296875 -10.84375 L 3.390625 -10.84375 L 7.25 -5.21875 L 11.09375 -10.84375 L 13.15625 -10.84375 L 13.15625 0 L 10.71875 0 L 10.71875 -6.515625 L 8.078125 -2.671875 L 6.375 -2.671875 L 3.75 -6.53125 L 3.75 0 Z M 1.296875 0 "/></g></g></g><g fill="#000000" fill-opacity="1"><g transform="translate(23.171709, 19.24609)"><g><path d="M 5.734375 0.21875 C 4.785156 0.21875 3.972656 0.03125 3.296875 -0.34375 C 2.628906 -0.71875 2.109375 -1.253906 1.734375 -1.953125 C 1.367188 -2.648438 1.1875 -3.484375 1.1875 -4.453125 L 1.1875 -10.84375 L 3.65625 -10.84375 L 3.65625 -4.625 C 3.65625 -2.957031 4.347656 -2.125 5.734375 -2.125 C 7.109375 -2.125 7.796875 -2.957031 7.796875 -4.625 L 7.796875 -10.84375 L 10.265625 -10.84375 L 10.265625 -4.453125 C 10.265625 -3.484375 10.082031 -2.648438 9.71875 -1.953125 C 9.351562 -1.253906 8.832031 -0.71875 8.15625 -0.34375 C 7.476562 0.03125 6.671875 0.21875 5.734375 0.21875 Z M 5.734375 0.21875 "/></g></g></g><g fill="#000000" fill-opacity="1"><g transform="translate(35.803805, 19.24609)"><g><path d="M 6.34375 0.21875 C 5.238281 0.21875 4.257812 -0.0195312 3.40625 -0.5 C 2.550781 -0.976562 1.878906 -1.640625 1.390625 -2.484375 C 0.910156 -3.335938 0.671875 -4.316406 0.671875 -5.421875 C 0.671875 -6.523438 0.910156 -7.5 1.390625 -8.34375 C 1.867188 -9.1875 2.53125 -9.847656 3.375 -10.328125 C 4.226562 -10.816406 5.203125 -11.0625 6.296875 -11.0625 C 7.179688 -11.0625 7.992188 -10.90625 8.734375 -10.59375 C 9.472656 -10.28125 10.101562 -9.84375 10.625 -9.28125 C 11.144531 -8.71875 11.515625 -8.054688 11.734375 -7.296875 L 9.09375 -7.296875 C 8.832031 -7.765625 8.460938 -8.128906 7.984375 -8.390625 C 7.503906 -8.660156 6.957031 -8.796875 6.34375 -8.796875 C 5.71875 -8.796875 5.160156 -8.648438 4.671875 -8.359375 C 4.191406 -8.066406 3.8125 -7.664062 3.53125 -7.15625 C 3.257812 -6.65625 3.125 -6.078125 3.125 -5.421875 C 3.125 -4.765625 3.257812 -4.179688 3.53125 -3.671875 C 3.800781 -3.171875 4.175781 -2.773438 4.65625 -2.484375 C 5.144531 -2.191406 5.71875 -2.046875 6.375 -2.046875 C 7.175781 -2.046875 7.835938 -2.242188 8.359375 -2.640625 C 8.890625 -3.046875 9.234375 -3.582031 9.390625 -4.25 L 5.875 -4.25 L 5.875 -6.140625 L 11.984375 -6.140625 C 12.046875 -5.210938 11.953125 -4.363281 11.703125 -3.59375 C 11.460938 -2.820312 11.09375 -2.148438 10.59375 -1.578125 C 10.09375 -1.003906 9.484375 -0.5625 8.765625 -0.25 C 8.054688 0.0625 7.25 0.21875 6.34375 0.21875 Z M 6.34375 0.21875 "/></g></g></g><g fill="#000000" fill-opacity="1"><g transform="translate(49.61239, 19.24609)"><g><path d="M 0.140625 0 L 4.4375 -10.84375 L 6.859375 -10.84375 L 11.171875 0 L 8.53125 0 L 7.796875 -1.875 L 3.5 -1.875 L 2.765625 0 Z M 4.140625 -3.8125 L 7.1875 -3.8125 L 5.65625 -7.765625 Z M 4.140625 -3.8125 "/></g></g></g><g fill="#000000" fill-opacity="1"><g transform="translate(62.08968, 19.24609)"><g><path d="M 1.296875 0 L 1.296875 -10.84375 L 3.390625 -10.84375 L 7.25 -5.21875 L 11.09375 -10.84375 L 13.15625 -10.84375 L 13.15625 0 L 10.71875 0 L 10.71875 -6.515625 L 8.078125 -2.671875 L 6.375 -2.671875 L 3.75 -6.53125 L 3.75 0 Z M 1.296875 0 "/></g></g></g><g fill="#000000" fill-opacity="1"><g transform="translate(77.724919, 19.24609)"><g><path d="M 1.296875 0 L 1.296875 -10.84375 L 6.140625 -10.84375 C 7.242188 -10.84375 8.117188 -10.578125 8.765625 -10.046875 C 9.421875 -9.523438 9.75 -8.816406 9.75 -7.921875 C 9.75 -7.421875 9.632812 -6.960938 9.40625 -6.546875 C 9.1875 -6.140625 8.867188 -5.816406 8.453125 -5.578125 C 8.972656 -5.347656 9.375 -5.007812 9.65625 -4.5625 C 9.9375 -4.125 10.078125 -3.613281 10.078125 -3.03125 C 10.078125 -2.425781 9.921875 -1.894531 9.609375 -1.4375 C 9.304688 -0.988281 8.878906 -0.632812 8.328125 -0.375 C 7.773438 -0.125 7.128906 0 6.390625 0 Z M 3.734375 -1.953125 L 6.015625 -1.953125 C 6.503906 -1.953125 6.882812 -2.0625 7.15625 -2.28125 C 7.425781 -2.507812 7.5625 -2.832031 7.5625 -3.25 C 7.5625 -3.664062 7.425781 -3.984375 7.15625 -4.203125 C 6.882812 -4.429688 6.503906 -4.546875 6.015625 -4.546875 L 3.734375 -4.546875 Z M 3.734375 -6.421875 L 5.78125 -6.421875 C 6.25 -6.421875 6.609375 -6.53125 6.859375 -6.75 C 7.117188 -6.96875 7.25 -7.273438 7.25 -7.671875 C 7.25 -8.054688 7.117188 -8.351562 6.859375 -8.5625 C 6.609375 -8.78125 6.25 -8.890625 5.78125 -8.890625 L 3.734375 -8.890625 Z M 3.734375 -6.421875 "/></g></g></g><g fill="#000000" fill-opacity="1"><g transform="translate(89.567527, 19.24609)"><g><path d="M 1.296875 0 L 1.296875 -10.84375 L 3.765625 -10.84375 L 3.765625 0 Z M 1.296875 0 "/></g></g></g><g clip-path="url(#860d814d83)"><path stroke-linecap="butt" transform="matrix(0.725806, 0, 0, 0.725806, 3.02419, 0.00000226609)" fill="none" stroke-linejoin="miter" d="M -0.00103716 -0.00000312217 L 270.000354 -0.00000312217 L 270.000354 39.998608 L -0.00103716 39.998608 Z M -0.00103716 -0.00000312217 " stroke="#ffffff" stroke-width="2" stroke-opacity="1" stroke-miterlimit="4"/></g></svg>